{"glyphs":{"0":{"ha":518,"x_min":0,"x_max":0,"o":"m 56 733 l 56 240 b 260 -7 56 106 111 -7 b 463 240 407 -7 463 106 l 463 733 b 260 979 463 868 407 979 b 56 733 111 979 56 868 z m 69 240 l 69 733 b 260 967 69 860 119 967 b 449 733 400 967 449 860 l 449 240 b 260 7 449 114 400 7 b 69 240 119 7 69 114 z "},"1":{"ha":300,"x_min":0,"x_max":0,"o":"m 224 949 l 224 0 l 238 0 l 238 974 l 218 974 b 56 831 192 897 138 840 l 56 817 b 224 949 135 826 193 876 z "},"2":{"ha":510,"x_min":0,"x_max":0,"o":"m 254 979 b 56 726 104 979 56 858 l 56 681 l 69 681 l 69 726 b 254 967 69 850 113 967 b 440 729 400 967 440 856 b 56 7 440 471 56 382 l 56 0 l 450 0 l 450 14 l 69 14 l 69 18 b 454 729 76 376 454 464 b 254 979 454 864 408 979 z "},"3":{"ha":511,"x_min":0,"x_max":0,"o":"m 256 979 b 56 733 107 979 56 867 l 56 708 l 69 708 l 69 733 b 256 967 69 858 115 967 b 442 733 396 967 442 858 l 442 710 b 272 514 442 608 376 522 l 199 514 l 199 501 l 272 501 b 442 314 381 494 442 421 l 442 240 b 256 7 442 115 396 7 b 69 240 115 7 69 115 l 69 281 l 56 281 l 56 240 b 256 -7 56 107 107 -7 b 456 240 404 -7 456 107 l 456 314 b 313 508 456 408 407 485 b 456 710 401 535 456 618 l 456 733 b 256 979 456 867 404 979 z "},"4":{"ha":565,"x_min":0,"x_max":0,"o":"m 422 236 l 510 236 l 510 250 l 422 250 l 422 974 l 403 974 l 56 251 l 56 236 l 408 236 l 408 0 l 422 0 z m 69 250 l 408 953 l 408 250 z "},"5":{"ha":511,"x_min":0,"x_max":0,"o":"m 86 524 l 107 960 l 438 960 l 438 974 l 94 974 l 69 481 l 83 481 l 83 489 b 256 610 113 564 172 610 b 442 378 394 610 442 501 l 442 240 b 256 7 442 117 394 7 b 69 240 117 7 69 117 l 69 276 l 56 276 l 56 240 b 256 -7 56 108 108 -7 b 456 240 403 -7 456 108 l 456 378 b 256 624 456 508 403 624 b 86 524 179 624 121 592 z "},"6":{"ha":519,"x_min":0,"x_max":0,"o":"m 260 979 b 56 733 111 979 56 868 l 56 240 b 260 -7 56 106 111 -7 b 464 240 408 -7 464 106 l 464 326 b 260 572 464 460 408 572 b 69 432 163 572 97 522 l 69 733 b 260 967 69 860 119 967 b 446 739 400 967 446 864 l 446 735 l 460 735 l 460 739 b 260 979 460 872 407 979 z m 260 558 b 450 326 400 558 450 451 l 450 240 b 260 7 450 114 400 7 b 69 240 119 7 69 114 l 69 326 b 260 558 69 451 119 558 z "},"7":{"ha":511,"x_min":0,"x_max":0,"o":"m 440 960 l 140 0 l 156 0 l 456 958 l 456 974 l 56 974 l 56 960 z "},"8":{"ha":532,"x_min":0,"x_max":0,"o":"m 265 979 b 56 749 124 979 56 885 l 56 717 b 206 508 56 611 96 529 b 56 296 93 485 56 406 l 56 232 b 265 -7 56 94 119 -7 b 476 232 413 -7 476 94 l 476 296 b 329 508 476 403 439 486 b 476 717 436 528 476 614 l 476 749 b 265 979 476 885 408 979 z m 265 967 b 463 749 400 967 463 876 l 463 717 b 265 514 463 588 399 514 b 69 717 133 514 69 588 l 69 749 b 265 967 69 876 132 967 z m 265 500 b 463 296 401 500 463 429 l 463 232 b 265 7 463 103 404 7 b 69 232 128 7 69 103 l 69 296 b 265 500 69 429 131 500 z "},"9":{"ha":519,"x_min":0,"x_max":0,"o":"m 260 981 b 56 733 111 981 56 868 l 56 647 b 260 401 56 514 111 401 b 450 542 357 401 422 451 l 450 240 b 260 7 450 114 400 7 b 69 236 121 7 69 110 l 69 242 l 56 242 l 56 236 b 260 -7 56 101 113 -7 b 464 240 408 -7 464 106 l 464 733 b 260 981 464 868 408 981 z m 260 967 b 450 733 400 967 450 860 l 450 647 b 260 415 450 522 400 415 b 69 647 119 415 69 522 l 69 733 b 260 967 69 860 119 967 z "},"A":{"ha":628,"x_min":0,"x_max":0,"o":"m 129 236 l 497 236 l 558 0 l 572 0 l 321 974 l 301 974 l 56 0 l 69 0 z m 133 250 l 311 956 l 493 250 z "},"Á":{"ha":628,"x_min":0,"x_max":0,"o":"m 379 1144 l 360 1144 l 258 1025 l 276 1025 z m 129 236 l 497 236 l 558 0 l 572 0 l 321 974 l 301 974 l 56 0 l 69 0 z m 133 250 l 311 956 l 493 250 z "},"Ă":{"ha":628,"x_min":0,"x_max":0,"o":"m 435 1119 l 421 1119 b 311 1032 418 1061 365 1032 b 203 1119 257 1032 204 1061 l 189 1119 b 311 1018 190 1053 250 1018 b 435 1119 374 1018 432 1054 z m 129 236 l 497 236 l 558 0 l 572 0 l 321 974 l 301 974 l 56 0 l 69 0 z m 133 250 l 311 956 l 493 250 z "},"Â":{"ha":628,"x_min":0,"x_max":0,"o":"m 213 1024 l 311 1118 l 408 1024 l 429 1024 l 315 1132 l 306 1132 l 193 1024 z m 129 236 l 497 236 l 558 0 l 572 0 l 321 974 l 301 974 l 56 0 l 69 0 z m 133 250 l 311 956 l 493 250 z "},"Ä":{"ha":628,"x_min":0,"x_max":0,"o":"m 272 1132 l 258 1132 l 258 1024 l 272 1024 z m 364 1132 l 350 1132 l 350 1024 l 364 1024 z m 129 236 l 497 236 l 558 0 l 572 0 l 321 974 l 301 974 l 56 0 l 69 0 z m 133 250 l 311 956 l 493 250 z "},"À":{"ha":628,"x_min":0,"x_max":0,"o":"m 249 1143 l 229 1143 l 332 1024 l 350 1024 z m 129 236 l 497 236 l 558 0 l 572 0 l 321 974 l 301 974 l 56 0 l 69 0 z m 133 250 l 311 956 l 493 250 z "},"Ā":{"ha":628,"x_min":0,"x_max":0,"o":"m 432 1082 l 190 1082 l 190 1069 l 432 1069 z m 129 236 l 497 236 l 558 0 l 572 0 l 321 974 l 301 974 l 56 0 l 69 0 z m 133 250 l 311 956 l 493 250 z "},"Ą":{"ha":628,"x_min":0,"x_max":0,"o":"m 571 0 l 572 0 l 321 974 l 301 974 l 56 0 l 69 0 l 129 236 l 497 236 l 557 4 b 489 -128 518 -31 486 -83 b 560 -189 492 -171 524 -187 b 628 -169 583 -189 608 -182 l 628 -153 b 561 -175 611 -167 585 -175 b 503 -128 531 -175 506 -161 b 571 0 500 -85 538 -26 z m 133 250 l 311 956 l 493 250 z "},"Å":{"ha":628,"x_min":0,"x_max":0,"o":"m 310 1193 b 226 1113 264 1193 226 1158 b 310 1031 226 1065 264 1031 b 393 1113 356 1031 393 1065 b 310 1193 393 1158 356 1193 z m 310 1179 b 379 1113 347 1179 379 1151 b 310 1044 379 1072 347 1044 b 240 1113 271 1044 240 1072 b 310 1179 240 1151 271 1179 z m 129 236 l 497 236 l 558 0 l 572 0 l 321 974 l 301 974 l 56 0 l 69 0 z m 133 250 l 311 956 l 493 250 z "},"Ã":{"ha":628,"x_min":0,"x_max":0,"o":"m 249 1111 b 179 1061 217 1110 194 1088 l 192 1054 b 249 1097 204 1076 222 1097 b 381 1044 294 1099 333 1042 b 440 1094 410 1046 428 1071 l 428 1101 b 381 1058 418 1083 403 1060 b 249 1111 339 1056 299 1113 z m 129 236 l 497 236 l 558 0 l 572 0 l 321 974 l 301 974 l 56 0 l 69 0 z m 133 250 l 311 956 l 493 250 z "},"Æ":{"ha":825,"x_min":0,"x_max":0,"o":"m 724 500 l 474 500 l 474 958 l 769 958 l 769 972 l 450 972 l 56 0 l 69 0 l 168 242 l 460 242 l 460 0 l 769 0 l 769 14 l 474 14 l 474 486 l 724 486 z m 174 256 l 460 958 l 460 256 z "},"Ǽ":{"ha":825,"x_min":0,"x_max":0,"o":"m 575 1160 l 556 1160 l 454 1040 l 472 1040 z m 724 500 l 474 500 l 474 958 l 769 958 l 769 972 l 450 972 l 56 0 l 69 0 l 168 242 l 460 242 l 460 0 l 769 0 l 769 14 l 474 14 l 474 486 l 724 486 z m 174 256 l 460 958 l 460 256 z "},"B":{"ha":503,"x_min":0,"x_max":0,"o":"m 246 972 l 56 972 l 56 0 l 246 0 b 447 222 392 0 447 86 l 447 310 b 283 518 447 424 403 504 b 428 707 399 532 428 599 l 428 774 b 246 972 428 901 385 972 z m 204 525 l 69 525 l 69 958 l 246 958 b 414 774 376 958 414 894 l 414 707 b 204 525 414 557 350 525 z m 246 14 l 69 14 l 69 511 l 219 511 b 433 310 361 511 433 457 l 433 222 b 246 14 433 93 383 14 z "},"C":{"ha":511,"x_min":0,"x_max":0,"o":"m 256 979 b 56 733 108 979 56 864 l 56 239 b 256 -7 56 108 108 -7 b 456 239 403 -7 456 108 l 456 342 l 442 342 l 442 239 b 256 7 442 115 394 7 b 69 239 117 7 69 115 l 69 733 b 256 965 69 857 117 965 b 442 733 394 965 442 857 l 442 660 l 456 660 l 456 733 b 256 979 456 864 403 979 z "},"Ć":{"ha":511,"x_min":0,"x_max":0,"o":"m 347 1164 l 328 1164 l 226 1044 l 244 1044 z m 256 979 b 56 733 108 979 56 864 l 56 239 b 256 -7 56 108 108 -7 b 456 239 403 -7 456 108 l 456 342 l 442 342 l 442 239 b 256 7 442 115 394 7 b 69 239 117 7 69 115 l 69 733 b 256 965 69 857 117 965 b 442 733 394 965 442 857 l 442 660 l 456 660 l 456 733 b 256 979 456 864 403 979 z "},"Č":{"ha":511,"x_min":0,"x_max":0,"o":"m 168 1147 l 149 1147 l 261 1039 l 271 1039 l 385 1147 l 364 1147 l 267 1053 z m 256 979 b 56 733 108 979 56 864 l 56 239 b 256 -7 56 108 108 -7 b 456 239 403 -7 456 108 l 456 342 l 442 342 l 442 239 b 256 7 442 115 394 7 b 69 239 117 7 69 115 l 69 733 b 256 965 69 857 117 965 b 442 733 394 965 442 857 l 442 660 l 456 660 l 456 733 b 256 979 456 864 403 979 z "},"Ç":{"ha":511,"x_min":0,"x_max":0,"o":"m 256 979 b 56 733 108 979 56 864 l 56 239 b 249 -7 56 110 107 -3 l 249 -67 l 256 -67 b 353 -129 300 -67 353 -74 b 253 -199 353 -181 294 -199 b 150 -128 210 -197 150 -179 l 150 -124 l 136 -124 l 136 -128 b 253 -211 136 -187 201 -211 b 367 -129 303 -212 367 -189 b 263 -54 367 -68 314 -56 l 263 -7 b 456 239 404 -3 456 110 l 456 342 l 442 342 l 442 239 b 256 7 442 115 394 7 b 69 239 117 7 69 115 l 69 733 b 256 965 69 857 117 965 b 442 733 394 965 442 857 l 442 660 l 456 660 l 456 733 b 256 979 456 864 403 979 z "},"Ĉ":{"ha":511,"x_min":0,"x_max":0,"o":"m 165 1038 l 264 1132 l 361 1038 l 382 1038 l 268 1146 l 258 1146 l 146 1038 z m 256 979 b 56 733 108 979 56 864 l 56 239 b 256 -7 56 108 108 -7 b 456 239 403 -7 456 108 l 456 342 l 442 342 l 442 239 b 256 7 442 115 394 7 b 69 239 117 7 69 115 l 69 733 b 256 965 69 857 117 965 b 442 733 394 965 442 857 l 442 660 l 456 660 l 456 733 b 256 979 456 864 403 979 z "},"Ċ":{"ha":511,"x_min":0,"x_max":0,"o":"m 263 1138 l 249 1138 l 249 1029 l 263 1029 z m 256 979 b 56 733 108 979 56 864 l 56 239 b 256 -7 56 108 108 -7 b 456 239 403 -7 456 108 l 456 342 l 442 342 l 442 239 b 256 7 442 115 394 7 b 69 239 117 7 69 115 l 69 733 b 256 965 69 857 117 965 b 442 733 394 965 442 857 l 442 660 l 456 660 l 456 733 b 256 979 456 864 403 979 z "},"D":{"ha":517,"x_min":0,"x_max":0,"o":"m 253 972 l 56 972 l 56 0 l 254 0 b 461 242 401 0 461 107 l 461 729 b 253 972 461 865 401 972 z m 254 14 l 69 14 l 69 958 l 253 958 b 447 729 393 958 447 858 l 447 242 b 254 14 447 114 394 14 z "},"Ð":{"ha":517,"x_min":0,"x_max":0,"o":"m 253 972 l 56 972 l 56 493 l -17 493 l -17 481 l 56 481 l 56 0 l 254 0 b 461 242 401 0 461 107 l 461 729 b 253 972 461 865 401 972 z m 210 481 l 210 493 l 69 493 l 69 958 l 253 958 b 447 729 393 958 447 858 l 447 242 b 254 14 447 114 394 14 l 69 14 l 69 481 z "},"Ď":{"ha":517,"x_min":0,"x_max":0,"o":"m 146 1139 l 126 1139 l 239 1031 l 249 1031 l 363 1139 l 342 1139 l 244 1044 z m 253 972 l 56 972 l 56 0 l 254 0 b 461 242 401 0 461 107 l 461 729 b 253 972 461 865 401 972 z m 254 14 l 69 14 l 69 958 l 253 958 b 447 729 393 958 447 858 l 447 242 b 254 14 447 114 394 14 z "},"Đ":{"ha":517,"x_min":0,"x_max":0,"o":"m 253 972 l 56 972 l 56 490 l -8 490 l -8 478 l 56 478 l 56 0 l 254 0 b 461 242 401 0 461 107 l 461 729 b 253 972 461 865 401 972 z m 211 478 l 211 490 l 69 490 l 69 958 l 253 958 b 447 729 393 958 447 858 l 447 242 b 254 14 447 114 394 14 l 69 14 l 69 478 z "},"E":{"ha":475,"x_min":0,"x_max":0,"o":"m 365 500 l 69 500 l 69 958 l 419 958 l 419 972 l 56 972 l 56 0 l 419 0 l 419 14 l 69 14 l 69 486 l 365 486 z "},"É":{"ha":475,"x_min":0,"x_max":0,"o":"m 325 1150 l 306 1150 l 204 1031 l 222 1031 z m 365 500 l 69 500 l 69 958 l 419 958 l 419 972 l 56 972 l 56 0 l 419 0 l 419 14 l 69 14 l 69 486 l 365 486 z "},"Ĕ":{"ha":475,"x_min":0,"x_max":0,"o":"m 360 1143 l 346 1143 b 236 1056 343 1085 290 1056 b 128 1143 182 1056 129 1085 l 114 1143 b 236 1042 115 1076 175 1042 b 360 1143 299 1042 357 1078 z m 365 500 l 69 500 l 69 958 l 419 958 l 419 972 l 56 972 l 56 0 l 419 0 l 419 14 l 69 14 l 69 486 l 365 486 z "},"Ě":{"ha":475,"x_min":0,"x_max":0,"o":"m 146 1140 l 126 1140 l 239 1032 l 249 1032 l 363 1140 l 342 1140 l 244 1046 z m 365 500 l 69 500 l 69 958 l 419 958 l 419 972 l 56 972 l 56 0 l 419 0 l 419 14 l 69 14 l 69 486 l 365 486 z "},"Ê":{"ha":475,"x_min":0,"x_max":0,"o":"m 139 1033 l 238 1128 l 335 1033 l 356 1033 l 242 1142 l 232 1142 l 119 1033 z m 365 500 l 69 500 l 69 958 l 419 958 l 419 972 l 56 972 l 56 0 l 419 0 l 419 14 l 69 14 l 69 486 l 365 486 z "},"Ë":{"ha":475,"x_min":0,"x_max":0,"o":"m 199 1139 l 185 1139 l 185 1031 l 199 1031 z m 290 1139 l 276 1139 l 276 1031 l 290 1031 z m 365 500 l 69 500 l 69 958 l 419 958 l 419 972 l 56 972 l 56 0 l 419 0 l 419 14 l 69 14 l 69 486 l 365 486 z "},"Ė":{"ha":475,"x_min":0,"x_max":0,"o":"m 250 1143 l 236 1143 l 236 1035 l 250 1035 z m 365 500 l 69 500 l 69 958 l 419 958 l 419 972 l 56 972 l 56 0 l 419 0 l 419 14 l 69 14 l 69 486 l 365 486 z "},"È":{"ha":475,"x_min":0,"x_max":0,"o":"m 190 1165 l 171 1165 l 274 1046 l 292 1046 z m 365 500 l 69 500 l 69 958 l 419 958 l 419 972 l 56 972 l 56 0 l 419 0 l 419 14 l 69 14 l 69 486 l 365 486 z "},"Ē":{"ha":475,"x_min":0,"x_max":0,"o":"m 347 1088 l 119 1088 l 119 1075 l 347 1075 z m 365 500 l 69 500 l 69 958 l 419 958 l 419 972 l 56 972 l 56 0 l 419 0 l 419 14 l 69 14 l 69 486 l 365 486 z "},"Ę":{"ha":475,"x_min":0,"x_max":0,"o":"m 365 500 l 69 500 l 69 958 l 419 958 l 419 972 l 56 972 l 56 0 l 381 0 b 314 -128 350 -31 311 -83 b 385 -189 317 -171 349 -187 b 453 -169 408 -189 433 -182 l 453 -153 b 386 -175 436 -167 410 -175 b 328 -128 356 -175 331 -161 b 397 0 325 -85 364 -26 l 419 0 l 419 14 l 69 14 l 69 486 l 365 486 z "},"F":{"ha":461,"x_min":0,"x_max":0,"o":"m 351 475 l 69 475 l 69 958 l 406 958 l 406 972 l 56 972 l 56 0 l 69 0 l 69 461 l 351 461 z "},"G":{"ha":511,"x_min":0,"x_max":0,"o":"m 256 979 b 56 733 108 979 56 864 l 56 239 b 256 -7 56 108 108 -7 b 456 239 403 -7 456 108 l 456 479 l 278 479 l 278 465 l 442 465 l 442 239 b 256 7 442 115 394 7 b 69 239 117 7 69 115 l 69 733 b 256 965 69 857 117 965 b 442 733 394 965 442 857 l 442 672 l 456 672 l 456 733 b 256 979 456 864 403 979 z "},"Ğ":{"ha":511,"x_min":0,"x_max":0,"o":"m 382 1147 l 368 1147 b 258 1060 365 1089 313 1060 b 150 1147 204 1060 151 1089 l 136 1147 b 258 1046 138 1081 197 1046 b 382 1147 321 1046 379 1082 z m 256 979 b 56 733 108 979 56 864 l 56 239 b 256 -7 56 108 108 -7 b 456 239 403 -7 456 108 l 456 479 l 278 479 l 278 465 l 442 465 l 442 239 b 256 7 442 115 394 7 b 69 239 117 7 69 115 l 69 733 b 256 965 69 857 117 965 b 442 733 394 965 442 857 l 442 672 l 456 672 l 456 733 b 256 979 456 864 403 979 z "},"Ĝ":{"ha":511,"x_min":0,"x_max":0,"o":"m 160 1046 l 258 1140 l 356 1046 l 376 1046 l 263 1154 l 253 1154 l 140 1046 z m 256 979 b 56 733 108 979 56 864 l 56 239 b 256 -7 56 108 108 -7 b 456 239 403 -7 456 108 l 456 479 l 278 479 l 278 465 l 442 465 l 442 239 b 256 7 442 115 394 7 b 69 239 117 7 69 115 l 69 733 b 256 965 69 857 117 965 b 442 733 394 965 442 857 l 442 672 l 456 672 l 456 733 b 256 979 456 864 403 979 z "},"Ġ":{"ha":511,"x_min":0,"x_max":0,"o":"m 276 1146 l 263 1146 l 263 1038 l 276 1038 z m 256 979 b 56 733 108 979 56 864 l 56 239 b 256 -7 56 108 108 -7 b 456 239 403 -7 456 108 l 456 479 l 278 479 l 278 465 l 442 465 l 442 239 b 256 7 442 115 394 7 b 69 239 117 7 69 115 l 69 733 b 256 965 69 857 117 965 b 442 733 394 965 442 857 l 442 672 l 456 672 l 456 733 b 256 979 456 864 403 979 z "},"H":{"ha":514,"x_min":0,"x_max":0,"o":"m 69 479 l 444 479 l 444 0 l 458 0 l 458 972 l 444 972 l 444 493 l 69 493 l 69 972 l 56 972 l 56 0 l 69 0 z "},"Ħ":{"ha":514,"x_min":0,"x_max":0,"o":"m 458 747 l 511 747 l 511 760 l 458 760 l 458 972 l 444 972 l 444 760 l 69 760 l 69 972 l 56 972 l 56 760 l 0 760 l 0 747 l 56 747 l 56 0 l 69 0 l 69 479 l 444 479 l 444 0 l 458 0 z m 444 747 l 444 493 l 69 493 l 69 747 z "},"Ĥ":{"ha":514,"x_min":0,"x_max":0,"o":"m 158 1042 l 257 1136 l 354 1042 l 375 1042 l 261 1150 l 251 1150 l 139 1042 z m 69 479 l 444 479 l 444 0 l 458 0 l 458 972 l 444 972 l 444 493 l 69 493 l 69 972 l 56 972 l 56 0 l 69 0 z "},"I":{"ha":125,"x_min":0,"x_max":0,"o":"m 69 972 l 56 972 l 56 0 l 69 0 z "},"Ĳ":{"ha":475,"x_min":0,"x_max":0,"o":"m 69 972 l 56 972 l 56 0 l 69 0 z m 419 238 l 419 972 l 406 972 l 406 238 b 231 14 406 93 358 25 l 181 14 l 181 0 l 231 0 b 419 238 357 10 419 75 z "},"Í":{"ha":125,"x_min":0,"x_max":0,"o":"m 126 1151 l 25 1032 l 43 1032 l 146 1151 z m 56 972 l 56 0 l 69 0 l 69 972 z "},"Ĭ":{"ha":125,"x_min":0,"x_max":0,"o":"m 186 1133 l 172 1133 b 63 1046 169 1075 117 1046 b -46 1133 8 1046 -44 1075 l -60 1133 b 63 1032 -58 1067 1 1032 b 186 1133 125 1032 183 1068 z m 56 972 l 56 0 l 69 0 l 69 972 z "},"Î":{"ha":125,"x_min":0,"x_max":0,"o":"m 67 1139 l 57 1139 l -56 1031 l -36 1031 l 63 1125 l 160 1031 l 181 1031 z m 56 972 l 56 0 l 69 0 l 69 972 z "},"Ï":{"ha":125,"x_min":0,"x_max":0,"o":"m 24 1140 l 10 1140 l 10 1032 l 24 1032 z m 115 1140 l 101 1140 l 101 1032 l 115 1032 z m 69 972 l 56 972 l 56 0 l 69 0 z "},"İ":{"ha":125,"x_min":0,"x_max":0,"o":"m 69 1140 l 56 1140 l 56 1032 l 69 1032 z m 69 972 l 56 972 l 56 0 l 69 0 z "},"Ì":{"ha":125,"x_min":0,"x_max":0,"o":"m -33 1150 l 69 1031 l 88 1031 l -14 1150 z m 56 972 l 56 0 l 69 0 l 69 972 z "},"Ī":{"ha":125,"x_min":0,"x_max":0,"o":"m 156 1082 l -31 1082 l -31 1069 l 156 1069 z m 69 972 l 56 972 l 56 0 l 69 0 z "},"Į":{"ha":125,"x_min":0,"x_max":0,"o":"m 68 0 l 69 0 l 69 972 l 56 972 l 54 0 l 56 0 b -14 -128 15 -36 -17 -85 b 57 -189 -11 -171 21 -187 b 125 -169 81 -189 106 -182 l 125 -153 b 58 -175 108 -167 82 -175 b 0 -128 28 -175 3 -161 b 68 0 -3 -85 35 -26 z "},"Ĩ":{"ha":125,"x_min":0,"x_max":0,"o":"m 194 1104 l 182 1111 b 135 1068 172 1093 157 1069 b 3 1121 93 1065 53 1122 b -67 1071 -29 1119 -51 1097 l -54 1064 b 3 1107 -42 1086 -24 1107 b 135 1054 49 1108 88 1051 b 194 1104 164 1056 182 1081 z m 69 972 l 56 972 l 56 0 l 69 0 z "},"J":{"ha":350,"x_min":0,"x_max":0,"o":"m 56 14 l 56 0 b 114 1 76 -1 96 0 b 294 238 233 11 294 81 l 294 972 l 281 972 l 281 238 b 114 15 281 92 231 26 b 56 14 96 14 76 13 z "},"Ĵ":{"ha":350,"x_min":0,"x_max":0,"o":"m 189 1033 l 288 1128 l 385 1033 l 406 1033 l 292 1142 l 282 1142 l 169 1033 z m 294 238 l 294 972 l 281 972 l 281 238 b 114 15 281 92 231 26 b 56 14 96 14 76 13 l 56 0 b 114 1 76 -1 96 0 b 294 238 233 11 294 81 z "},"K":{"ha":554,"x_min":0,"x_max":0,"o":"m 147 496 l 482 0 l 499 0 l 156 508 l 469 972 l 453 972 l 69 407 l 69 972 l 56 972 l 56 0 l 69 0 l 69 382 z "},"L":{"ha":461,"x_min":0,"x_max":0,"o":"m 56 0 l 406 0 l 406 14 l 69 14 l 69 972 l 56 972 z "},"Ĺ":{"ha":461,"x_min":0,"x_max":0,"o":"m 165 1150 l 146 1150 l 44 1031 l 63 1031 z m 56 0 l 406 0 l 406 14 l 69 14 l 69 972 l 56 972 z "},"Ľ":{"ha":461,"x_min":0,"x_max":0,"o":"m 56 0 l 406 0 l 406 14 l 69 14 l 69 972 l 56 972 z m 304 864 l 282 778 l 292 778 l 317 864 l 317 972 l 303 972 l 303 864 z "},"Ŀ":{"ha":461,"x_min":0,"x_max":0,"o":"m 56 0 l 406 0 l 406 14 l 69 14 l 69 972 l 56 972 z m 251 547 l 238 547 l 238 439 l 251 439 z "},"Ł":{"ha":482,"x_min":0,"x_max":0,"o":"m 90 481 l 204 586 l 204 604 l 90 499 l 90 972 l 76 972 l 76 485 l 0 419 l 0 401 l 76 467 l 76 0 l 426 0 l 426 14 l 90 14 z "},"M":{"ha":674,"x_min":0,"x_max":0,"o":"m 346 3 l 604 958 l 604 0 l 618 0 l 618 972 l 594 972 l 336 18 l 81 972 l 56 972 l 56 0 l 69 0 l 69 958 l 326 3 z "},"N":{"ha":515,"x_min":0,"x_max":0,"o":"m 69 0 l 69 958 l 439 0 l 460 0 l 460 972 l 446 972 l 446 18 l 79 972 l 56 972 l 56 0 z "},"Ń":{"ha":515,"x_min":0,"x_max":0,"o":"m 354 1154 l 335 1154 l 233 1035 l 251 1035 z m 69 1 l 69 960 l 439 1 l 460 1 l 460 974 l 446 974 l 446 19 l 79 974 l 56 974 l 56 1 z "},"Ň":{"ha":515,"x_min":0,"x_max":0,"o":"m 163 1150 l 143 1150 l 256 1042 l 265 1042 l 379 1150 l 358 1150 l 261 1056 z m 69 0 l 69 958 l 439 0 l 460 0 l 460 972 l 446 972 l 446 18 l 79 972 l 56 972 l 56 0 z "},"Ñ":{"ha":515,"x_min":0,"x_max":0,"o":"m 390 1113 l 378 1119 b 331 1076 368 1101 353 1078 b 199 1129 289 1074 249 1131 b 129 1079 167 1128 144 1106 l 142 1072 b 199 1115 154 1094 172 1115 b 331 1063 244 1117 283 1060 b 390 1113 360 1064 378 1089 z m 69 0 l 69 958 l 439 0 l 460 0 l 460 972 l 446 972 l 446 18 l 79 972 l 56 972 l 56 0 z "},"O":{"ha":518,"x_min":0,"x_max":0,"o":"m 56 733 l 56 239 b 258 -7 56 106 111 -7 b 463 239 407 -7 463 106 l 463 733 b 258 979 463 867 407 979 b 56 733 111 979 56 867 z m 69 239 l 69 733 b 258 965 69 858 118 965 b 449 733 399 965 449 858 l 449 239 b 258 7 449 113 399 7 b 69 239 118 7 69 113 z "},"Ó":{"ha":518,"x_min":0,"x_max":0,"o":"m 342 1164 l 322 1164 l 221 1044 l 239 1044 z m 258 979 b 56 733 111 979 56 867 l 56 239 b 258 -7 56 106 111 -7 b 463 239 407 -7 463 106 l 463 733 b 258 979 463 867 407 979 z m 258 965 b 449 733 399 965 449 858 l 449 239 b 258 7 449 113 399 7 b 69 239 118 7 69 113 l 69 733 b 258 965 69 858 118 965 z "},"Ŏ":{"ha":518,"x_min":0,"x_max":0,"o":"m 382 1147 l 368 1147 b 258 1060 365 1089 313 1060 b 150 1147 204 1060 151 1089 l 136 1147 b 258 1046 138 1081 197 1046 b 382 1147 321 1046 379 1082 z m 258 979 b 56 733 111 979 56 867 l 56 239 b 258 -7 56 106 111 -7 b 463 239 407 -7 463 106 l 463 733 b 258 979 463 867 407 979 z m 258 965 b 449 733 399 965 449 858 l 449 239 b 258 7 449 113 399 7 b 69 239 118 7 69 113 l 69 733 b 258 965 69 858 118 965 z "},"Ô":{"ha":518,"x_min":0,"x_max":0,"o":"m 160 1042 l 258 1136 l 356 1042 l 376 1042 l 263 1150 l 253 1150 l 140 1042 z m 258 979 b 56 733 111 979 56 867 l 56 239 b 258 -7 56 106 111 -7 b 463 239 407 -7 463 106 l 463 733 b 258 979 463 867 407 979 z m 258 965 b 449 733 399 965 449 858 l 449 239 b 258 7 449 113 399 7 b 69 239 118 7 69 113 l 69 733 b 258 965 69 858 118 965 z "},"Ö":{"ha":518,"x_min":0,"x_max":0,"o":"m 219 1150 l 206 1150 l 206 1042 l 219 1042 z m 311 1150 l 297 1150 l 297 1042 l 311 1042 z m 258 979 b 56 733 111 979 56 867 l 56 239 b 258 -7 56 106 111 -7 b 463 239 407 -7 463 106 l 463 733 b 258 979 463 867 407 979 z m 258 965 b 449 733 399 965 449 858 l 449 239 b 258 7 449 113 399 7 b 69 239 118 7 69 113 l 69 733 b 258 965 69 858 118 965 z "},"Ò":{"ha":518,"x_min":0,"x_max":0,"o":"m 194 1164 l 175 1164 l 278 1044 l 296 1044 z m 258 979 b 56 733 111 979 56 867 l 56 239 b 258 -7 56 106 111 -7 b 463 239 407 -7 463 106 l 463 733 b 258 979 463 867 407 979 z m 258 965 b 449 733 399 965 449 858 l 449 239 b 258 7 449 113 399 7 b 69 239 118 7 69 113 l 69 733 b 258 965 69 858 118 965 z "},"Ő":{"ha":518,"x_min":0,"x_max":0,"o":"m 314 1164 l 294 1164 l 193 1044 l 211 1044 z m 396 1164 l 376 1164 l 275 1044 l 293 1044 z m 258 979 b 56 733 111 979 56 867 l 56 239 b 258 -7 56 106 111 -7 b 463 239 407 -7 463 106 l 463 733 b 258 979 463 867 407 979 z m 258 965 b 449 733 399 965 449 858 l 449 239 b 258 7 449 113 399 7 b 69 239 118 7 69 113 l 69 733 b 258 965 69 858 118 965 z "},"Ō":{"ha":518,"x_min":0,"x_max":0,"o":"m 374 1083 l 149 1083 l 149 1071 l 374 1071 z m 258 979 b 56 733 111 979 56 867 l 56 239 b 258 -7 56 106 111 -7 b 463 239 407 -7 463 106 l 463 733 b 258 979 463 867 407 979 z m 258 965 b 449 733 399 965 449 858 l 449 239 b 258 7 449 113 399 7 b 69 239 118 7 69 113 l 69 733 b 258 965 69 858 118 965 z "},"Ø":{"ha":518,"x_min":0,"x_max":0,"o":"m 258 979 b 56 733 111 979 56 867 l 56 239 b 92 81 56 179 67 124 l 60 0 l 71 -4 l 100 68 b 258 -7 132 22 183 -7 b 463 239 407 -7 463 106 l 463 733 b 425 892 463 793 451 849 l 454 968 l 443 972 l 417 906 b 258 979 383 950 333 979 z m 258 965 b 410 889 332 965 381 936 l 97 97 b 69 239 78 138 69 186 l 69 733 b 258 965 69 858 118 965 z m 106 82 l 418 875 b 449 733 439 836 449 786 l 449 239 b 258 7 449 113 399 7 b 106 82 183 7 135 36 z "},"Ǿ":{"ha":518,"x_min":0,"x_max":0,"o":"m 336 1164 l 235 1044 l 253 1044 l 356 1164 z m 425 892 l 457 972 l 443 972 l 417 906 b 258 979 383 950 333 979 b 56 733 111 979 56 867 l 56 239 b 92 81 56 179 67 124 l 60 0 l 74 0 l 100 68 b 258 -7 132 22 183 -7 b 463 239 407 -7 463 106 l 463 733 b 425 892 463 793 451 849 z m 258 965 b 410 889 332 965 381 936 l 97 97 b 69 239 78 138 69 186 l 69 733 b 258 965 69 858 118 965 z m 106 82 l 418 875 b 449 733 439 836 449 786 l 449 239 b 258 7 449 113 399 7 b 106 82 183 7 135 36 z "},"Õ":{"ha":518,"x_min":0,"x_max":0,"o":"m 397 1107 l 385 1114 b 338 1071 375 1096 360 1072 b 206 1124 296 1068 256 1125 b 136 1074 174 1122 151 1100 l 149 1067 b 206 1110 161 1089 179 1110 b 338 1057 251 1111 290 1054 b 397 1107 367 1058 385 1083 z m 258 979 b 56 733 111 979 56 867 l 56 239 b 258 -7 56 106 111 -7 b 463 239 407 -7 463 106 l 463 733 b 258 979 463 867 407 979 z m 258 965 b 449 733 399 965 449 858 l 449 239 b 258 7 449 113 399 7 b 69 239 118 7 69 113 l 69 733 b 258 965 69 858 118 965 z "},"Œ":{"ha":775,"x_min":0,"x_max":0,"o":"m 674 500 l 422 500 l 422 958 l 719 958 l 719 972 l 243 972 b 56 729 101 972 56 853 l 56 243 b 243 0 56 119 101 0 l 719 0 l 719 14 l 422 14 l 422 486 l 674 486 z m 243 958 l 408 958 l 408 14 l 243 14 b 69 243 110 14 69 128 l 69 729 b 243 958 69 844 110 958 z "},"P":{"ha":496,"x_min":0,"x_max":0,"o":"m 243 972 l 56 972 l 56 0 l 69 0 l 69 419 l 217 419 b 440 644 372 419 440 492 l 440 739 b 243 972 440 872 393 972 z m 217 433 l 69 433 l 69 958 l 243 958 b 426 739 385 958 426 865 l 426 644 b 217 433 426 499 365 433 z "},"Þ":{"ha":524,"x_min":0,"x_max":0,"o":"m 243 769 l 69 769 l 69 972 l 56 972 l 56 0 l 69 0 l 69 217 l 217 217 b 440 442 372 217 440 289 l 440 536 b 243 769 440 669 393 769 z m 217 231 l 69 231 l 69 756 l 243 756 b 426 536 385 756 426 663 l 426 442 b 217 231 426 296 365 231 z "},"Q":{"ha":575,"x_min":0,"x_max":0,"o":"m 260 979 b 56 733 111 979 56 867 l 56 239 b 260 -7 56 106 111 -7 b 399 44 321 -7 367 13 b 504 -8 424 7 458 -8 l 519 -8 l 519 6 l 504 6 b 408 54 463 6 431 18 b 464 239 447 100 464 165 l 464 733 b 260 979 464 867 408 979 z m 260 965 b 450 733 400 965 450 858 l 450 239 b 260 7 450 113 400 7 b 69 239 119 7 69 113 l 69 733 b 260 965 69 858 119 965 z "},"R":{"ha":524,"x_min":0,"x_max":0,"o":"m 243 972 l 56 972 l 56 0 l 69 0 l 69 456 l 197 456 b 426 268 332 456 426 418 l 426 115 b 451 0 426 78 431 32 l 468 0 b 440 115 444 29 440 79 l 440 268 b 278 461 440 376 390 446 b 440 667 390 478 440 544 l 440 754 b 243 972 440 886 386 972 z m 197 469 l 69 469 l 69 958 l 243 958 b 426 754 378 958 426 879 l 426 667 b 197 469 426 506 342 469 z "},"Ŕ":{"ha":524,"x_min":0,"x_max":0,"o":"m 322 1164 l 303 1164 l 201 1044 l 219 1044 z m 243 972 l 56 972 l 56 0 l 69 0 l 69 456 l 197 456 b 426 268 332 456 426 418 l 426 115 b 451 0 426 78 431 32 l 468 0 b 440 115 444 29 440 79 l 440 268 b 278 461 440 376 390 446 b 440 667 390 478 440 544 l 440 754 b 243 972 440 886 386 972 z m 197 469 l 69 469 l 69 958 l 243 958 b 426 754 378 958 426 879 l 426 667 b 197 469 426 506 342 469 z "},"Ř":{"ha":524,"x_min":0,"x_max":0,"o":"m 135 1151 l 115 1151 l 228 1043 l 238 1043 l 351 1151 l 331 1151 l 233 1057 z m 243 972 l 56 972 l 56 0 l 69 0 l 69 456 l 197 456 b 426 268 332 456 426 418 l 426 115 b 451 0 426 78 431 32 l 468 0 b 440 115 444 29 440 79 l 440 268 b 278 461 440 376 390 446 b 440 667 390 478 440 544 l 440 754 b 243 972 440 886 386 972 z m 197 469 l 69 469 l 69 958 l 243 958 b 426 754 378 958 426 879 l 426 667 b 197 469 426 506 342 469 z "},"S":{"ha":511,"x_min":0,"x_max":0,"o":"m 257 979 b 60 739 117 978 60 879 b 442 235 60 472 442 486 b 256 7 442 110 394 7 b 69 235 117 7 69 110 l 69 281 l 56 281 l 56 235 b 256 -7 56 103 108 -7 b 456 235 403 -7 456 103 b 74 739 456 497 74 483 b 257 965 74 861 119 965 b 440 738 394 965 440 860 l 440 721 l 454 721 l 454 738 b 257 979 454 868 403 979 z "},"Ś":{"ha":511,"x_min":0,"x_max":0,"o":"m 354 1164 l 335 1164 l 233 1044 l 251 1044 z m 257 979 b 60 739 117 978 60 879 b 442 235 60 472 442 486 b 256 7 442 110 394 7 b 69 235 117 7 69 110 l 69 281 l 56 281 l 56 235 b 256 -7 56 103 108 -7 b 456 235 403 -7 456 103 b 74 739 456 497 74 483 b 257 965 74 861 119 965 b 440 738 394 965 440 860 l 440 721 l 454 721 l 454 738 b 257 979 454 868 403 979 z "},"Š":{"ha":511,"x_min":0,"x_max":0,"o":"m 163 1151 l 143 1151 l 256 1043 l 265 1043 l 379 1151 l 358 1151 l 261 1057 z m 257 979 b 60 739 117 978 60 879 b 442 235 60 472 442 486 b 256 7 442 110 394 7 b 69 235 117 7 69 110 l 69 281 l 56 281 l 56 235 b 256 -7 56 103 108 -7 b 456 235 403 -7 456 103 b 74 739 456 497 74 483 b 257 965 74 861 119 965 b 440 738 394 965 440 860 l 440 721 l 454 721 l 454 738 b 257 979 454 868 403 979 z "},"Ş":{"ha":511,"x_min":0,"x_max":0,"o":"m 257 979 b 60 739 117 978 60 879 b 442 235 60 472 442 486 b 256 7 442 110 394 7 b 69 235 117 7 69 110 l 69 281 l 56 281 l 56 235 b 253 -7 56 104 108 -6 l 253 -67 l 260 -67 b 357 -129 304 -67 357 -74 b 257 -199 357 -181 299 -199 b 154 -128 214 -197 154 -179 l 154 -124 l 140 -124 l 140 -128 b 257 -211 140 -187 206 -211 b 371 -129 307 -212 371 -189 b 267 -54 371 -68 318 -56 l 267 -7 b 456 235 406 -1 456 106 b 74 739 456 497 74 483 b 257 965 74 861 119 965 b 440 738 394 965 440 860 l 440 721 l 454 721 l 454 738 b 257 979 454 868 403 979 z "},"Ŝ":{"ha":511,"x_min":0,"x_max":0,"o":"m 168 1042 l 267 1136 l 364 1042 l 385 1042 l 271 1150 l 261 1150 l 149 1042 z m 257 979 b 60 739 117 978 60 879 b 442 235 60 472 442 486 b 256 7 442 110 394 7 b 69 235 117 7 69 110 l 69 281 l 56 281 l 56 235 b 256 -7 56 103 108 -7 b 456 235 403 -7 456 103 b 74 739 456 497 74 483 b 257 965 74 861 119 965 b 440 738 394 965 440 860 l 440 721 l 454 721 l 454 738 b 257 979 454 868 403 979 z "},"T":{"ha":524,"x_min":0,"x_max":0,"o":"m 253 0 l 267 0 l 267 958 l 486 958 l 486 972 l 33 972 l 33 958 l 253 958 z "},"Ŧ":{"ha":564,"x_min":0,"x_max":0,"o":"m 403 629 l 289 629 l 289 958 l 508 958 l 508 972 l 56 972 l 56 958 l 275 958 l 275 629 l 161 629 l 161 617 l 275 617 l 275 0 l 289 0 l 289 617 l 403 617 z "},"Ť":{"ha":564,"x_min":0,"x_max":0,"o":"m 183 1142 l 164 1142 l 276 1033 l 286 1033 l 400 1142 l 379 1142 l 282 1047 z m 275 0 l 289 0 l 289 958 l 508 958 l 508 972 l 56 972 l 56 958 l 275 958 z "},"U":{"ha":504,"x_min":0,"x_max":0,"o":"m 69 242 l 69 972 l 56 972 l 56 242 b 253 -7 56 111 104 -7 b 449 242 400 -7 449 111 l 449 972 l 435 972 l 435 242 b 253 7 435 118 392 7 b 69 242 113 7 69 118 z "},"Ú":{"ha":504,"x_min":0,"x_max":0,"o":"m 349 1164 l 329 1164 l 228 1044 l 246 1044 z m 449 242 l 449 972 l 435 972 l 435 242 b 253 7 435 118 392 7 b 69 242 113 7 69 118 l 69 972 l 56 972 l 56 242 b 253 -7 56 111 104 -7 b 449 242 400 -7 449 111 z "},"Ŭ":{"ha":504,"x_min":0,"x_max":0,"o":"m 378 1133 l 364 1133 b 254 1046 361 1075 308 1046 b 146 1133 200 1046 147 1075 l 132 1133 b 254 1032 133 1067 193 1032 b 378 1133 317 1032 375 1068 z m 449 242 l 449 972 l 435 972 l 435 242 b 253 7 435 118 392 7 b 69 242 113 7 69 118 l 69 972 l 56 972 l 56 242 b 253 -7 56 111 104 -7 b 449 242 400 -7 449 111 z "},"Û":{"ha":504,"x_min":0,"x_max":0,"o":"m 156 1042 l 254 1136 l 351 1042 l 372 1042 l 258 1150 l 249 1150 l 136 1042 z m 449 242 l 449 972 l 435 972 l 435 242 b 253 7 435 118 392 7 b 69 242 113 7 69 118 l 69 972 l 56 972 l 56 242 b 253 -7 56 111 104 -7 b 449 242 400 -7 449 111 z "},"Ü":{"ha":504,"x_min":0,"x_max":0,"o":"m 213 1146 l 199 1146 l 199 1038 l 213 1038 z m 304 1146 l 290 1146 l 290 1038 l 304 1038 z m 449 242 l 449 972 l 435 972 l 435 242 b 253 7 435 118 392 7 b 69 242 113 7 69 118 l 69 972 l 56 972 l 56 242 b 253 -7 56 111 104 -7 b 449 242 400 -7 449 111 z "},"Ù":{"ha":504,"x_min":0,"x_max":0,"o":"m 186 1151 l 167 1151 l 269 1032 l 288 1032 z m 449 242 l 449 972 l 435 972 l 435 242 b 253 7 435 118 392 7 b 69 242 113 7 69 118 l 69 972 l 56 972 l 56 242 b 253 -7 56 111 104 -7 b 449 242 400 -7 449 111 z "},"Ű":{"ha":504,"x_min":0,"x_max":0,"o":"m 306 1160 l 286 1160 l 185 1040 l 203 1040 z m 388 1160 l 368 1160 l 267 1040 l 285 1040 z m 449 242 l 449 972 l 435 972 l 435 242 b 253 7 435 118 392 7 b 69 242 113 7 69 118 l 69 972 l 56 972 l 56 242 b 253 -7 56 111 104 -7 b 449 242 400 -7 449 111 z "},"Ū":{"ha":504,"x_min":0,"x_max":0,"o":"m 365 1082 l 151 1082 l 151 1069 l 365 1069 z m 449 242 l 449 972 l 435 972 l 435 242 b 253 7 435 118 392 7 b 69 242 113 7 69 118 l 69 972 l 56 972 l 56 242 b 253 -7 56 111 104 -7 b 449 242 400 -7 449 111 z "},"Ų":{"ha":504,"x_min":0,"x_max":0,"o":"m 449 242 l 449 972 l 435 972 l 435 242 b 253 7 435 118 392 7 b 69 242 113 7 69 118 l 69 972 l 56 972 l 56 242 b 253 -7 56 111 104 -7 b 286 -4 264 -7 275 -6 b 226 -128 256 -36 224 -86 b 297 -189 229 -171 261 -187 b 365 -169 321 -189 346 -182 l 365 -153 b 299 -175 349 -167 322 -175 b 240 -128 268 -175 243 -161 b 310 0 238 -85 276 -26 b 449 242 413 26 449 129 z "},"Ů":{"ha":504,"x_min":0,"x_max":0,"o":"m 261 1186 b 178 1106 215 1186 178 1151 b 261 1024 178 1058 215 1024 b 344 1106 307 1024 344 1058 b 261 1186 344 1151 307 1186 z m 261 1172 b 331 1106 299 1172 331 1144 b 261 1038 331 1065 299 1038 b 192 1106 222 1038 192 1065 b 261 1172 192 1144 222 1172 z m 449 242 l 449 972 l 435 972 l 435 242 b 253 7 435 118 392 7 b 69 242 113 7 69 118 l 69 972 l 56 972 l 56 242 b 253 -7 56 111 104 -7 b 449 242 400 -7 449 111 z "},"Ũ":{"ha":504,"x_min":0,"x_max":0,"o":"m 385 1107 l 372 1114 b 325 1071 363 1096 347 1072 b 193 1124 283 1068 243 1125 b 124 1074 161 1122 139 1100 l 136 1067 b 193 1110 149 1089 167 1110 b 325 1057 239 1111 278 1054 b 385 1107 354 1058 372 1083 z m 449 242 l 449 972 l 435 972 l 435 242 b 253 7 435 118 392 7 b 69 242 113 7 69 118 l 69 972 l 56 972 l 56 242 b 253 -7 56 111 104 -7 b 449 242 400 -7 449 111 z "},"V":{"ha":628,"x_min":0,"x_max":0,"o":"m 71 972 l 56 972 l 306 0 l 326 0 l 572 972 l 557 972 l 315 15 z "},"W":{"ha":869,"x_min":0,"x_max":0,"o":"m 261 0 l 443 953 l 614 0 l 632 0 l 814 972 l 800 972 l 624 26 l 454 967 l 432 967 l 251 19 l 69 972 l 56 972 l 240 0 z "},"Ẃ":{"ha":869,"x_min":0,"x_max":0,"o":"m 518 1151 l 499 1151 l 397 1032 l 415 1032 z m 261 0 l 443 953 l 614 0 l 632 0 l 814 972 l 800 972 l 624 26 l 454 967 l 432 967 l 251 19 l 69 972 l 56 972 l 240 0 z "},"Ŵ":{"ha":869,"x_min":0,"x_max":0,"o":"m 342 1038 l 440 1132 l 538 1038 l 558 1038 l 444 1146 l 435 1146 l 322 1038 z m 261 0 l 443 953 l 614 0 l 632 0 l 814 972 l 800 972 l 624 26 l 454 967 l 432 967 l 251 19 l 69 972 l 56 972 l 240 0 z "},"Ẅ":{"ha":869,"x_min":0,"x_max":0,"o":"m 404 1150 l 390 1150 l 390 1042 l 404 1042 z m 496 1150 l 482 1150 l 482 1042 l 496 1042 z m 261 0 l 443 953 l 614 0 l 632 0 l 814 972 l 800 972 l 624 26 l 454 967 l 432 967 l 251 19 l 69 972 l 56 972 l 240 0 z "},"Ẁ":{"ha":869,"x_min":0,"x_max":0,"o":"m 392 1164 l 372 1164 l 475 1044 l 493 1044 z m 261 0 l 443 953 l 614 0 l 632 0 l 814 972 l 800 972 l 624 26 l 454 967 l 432 967 l 251 19 l 69 972 l 56 972 l 240 0 z "},"X":{"ha":619,"x_min":0,"x_max":0,"o":"m 310 490 l 549 0 l 564 0 l 318 506 l 547 972 l 532 972 l 310 521 l 88 972 l 72 972 l 303 506 l 56 0 l 72 0 z "},"Y":{"ha":592,"x_min":0,"x_max":0,"o":"m 288 403 l 288 0 l 301 0 l 301 403 l 536 972 l 521 972 l 294 422 l 69 972 l 56 972 z "},"Ý":{"ha":592,"x_min":0,"x_max":0,"o":"m 389 1150 l 369 1150 l 268 1031 l 286 1031 z m 288 403 l 288 0 l 301 0 l 301 403 l 536 972 l 521 972 l 294 422 l 69 972 l 56 972 z "},"Ŷ":{"ha":592,"x_min":0,"x_max":0,"o":"m 197 1036 l 296 1131 l 393 1036 l 414 1036 l 300 1144 l 290 1144 l 178 1036 z m 288 403 l 288 0 l 301 0 l 301 403 l 536 972 l 521 972 l 294 422 l 69 972 l 56 972 z "},"Ÿ":{"ha":592,"x_min":0,"x_max":0,"o":"m 256 1140 l 242 1140 l 242 1032 l 256 1032 z m 347 1140 l 333 1140 l 333 1032 l 347 1032 z m 288 403 l 288 0 l 301 0 l 301 403 l 536 972 l 521 972 l 294 422 l 69 972 l 56 972 z "},"Ỳ":{"ha":592,"x_min":0,"x_max":0,"o":"m 231 1164 l 211 1164 l 314 1044 l 332 1044 z m 288 403 l 288 0 l 301 0 l 301 403 l 536 972 l 521 972 l 294 422 l 69 972 l 56 972 z "},"Z":{"ha":553,"x_min":0,"x_max":0,"o":"m 489 0 l 489 14 l 71 14 l 496 956 l 496 972 l 76 972 l 76 958 l 481 958 l 56 15 l 56 0 z "},"Ź":{"ha":553,"x_min":0,"x_max":0,"o":"m 392 1164 l 372 1164 l 271 1044 l 289 1044 z m 489 0 l 489 14 l 71 14 l 496 956 l 496 972 l 76 972 l 76 958 l 481 958 l 56 15 l 56 0 z "},"Ž":{"ha":553,"x_min":0,"x_max":0,"o":"m 192 1150 l 172 1150 l 285 1042 l 294 1042 l 408 1150 l 388 1150 l 290 1056 z m 489 0 l 489 14 l 71 14 l 496 956 l 496 972 l 76 972 l 76 958 l 481 958 l 56 15 l 56 0 z "},"Ż":{"ha":553,"x_min":0,"x_max":0,"o":"m 311 1151 l 297 1151 l 297 1043 l 311 1043 z m 489 0 l 489 14 l 71 14 l 496 956 l 496 972 l 76 972 l 76 958 l 481 958 l 56 15 l 56 0 z "},"Ģ":{"ha":511,"x_min":0,"x_max":0,"o":"m 256 979 b 56 733 108 979 56 864 l 56 239 b 256 -7 56 108 108 -7 b 456 239 403 -7 456 108 l 456 479 l 278 479 l 278 465 l 442 465 l 442 239 b 256 7 442 115 394 7 b 69 239 117 7 69 115 l 69 733 b 256 965 69 857 117 965 b 442 733 394 965 442 857 l 442 672 l 456 672 l 456 733 b 256 979 456 864 403 979 z m 249 -156 l 226 -242 l 236 -242 l 261 -156 l 261 -47 l 247 -47 l 247 -156 z "},"Ķ":{"ha":554,"x_min":0,"x_max":0,"o":"m 147 496 l 482 0 l 499 0 l 156 508 l 469 972 l 453 972 l 69 407 l 69 972 l 56 972 l 56 0 l 69 0 l 69 382 z m 250 -156 l 228 -242 l 238 -242 l 263 -156 l 263 -47 l 249 -47 l 249 -156 z "},"Ļ":{"ha":461,"x_min":0,"x_max":0,"o":"m 56 0 l 406 0 l 406 14 l 69 14 l 69 972 l 56 972 z m 236 -162 l 214 -249 l 224 -249 l 249 -162 l 249 -54 l 235 -54 l 235 -162 z "},"Ņ":{"ha":515,"x_min":0,"x_max":0,"o":"m 69 0 l 69 958 l 439 0 l 460 0 l 460 972 l 446 972 l 446 18 l 79 972 l 56 972 l 56 0 z m 250 -156 l 228 -242 l 238 -242 l 263 -156 l 263 -47 l 249 -47 l 249 -156 z "},"Ŗ":{"ha":524,"x_min":0,"x_max":0,"o":"m 243 972 l 56 972 l 56 0 l 69 0 l 69 456 l 197 456 b 426 268 332 456 426 418 l 426 115 b 451 0 426 78 431 32 l 468 0 b 440 115 444 29 440 79 l 440 268 b 278 461 440 376 390 446 b 440 667 390 478 440 544 l 440 754 b 243 972 440 886 386 972 z m 197 469 l 69 469 l 69 958 l 243 958 b 426 754 378 958 426 879 l 426 667 b 197 469 426 506 342 469 z m 247 -154 l 225 -240 l 235 -240 l 260 -154 l 260 -46 l 246 -46 l 246 -154 z "},"Ţ":{"ha":564,"x_min":0,"x_max":0,"o":"m 288 0 l 289 0 l 289 958 l 508 958 l 508 972 l 56 972 l 56 958 l 275 958 l 275 0 l 276 0 l 276 -61 l 282 -61 b 379 -124 326 -61 379 -68 b 279 -193 379 -175 321 -193 b 176 -122 236 -192 176 -174 l 176 -118 l 163 -118 l 163 -122 b 279 -206 163 -182 228 -206 b 393 -124 329 -207 393 -183 b 288 -49 393 -62 339 -50 z "},"Ș":{"ha":511,"x_min":0,"x_max":0,"o":"m 257 979 b 60 739 117 978 60 879 b 442 235 60 472 442 486 b 256 7 442 110 394 7 b 69 235 117 7 69 110 l 69 281 l 56 281 l 56 235 b 256 -7 56 103 108 -7 b 456 235 403 -7 456 103 b 74 739 456 497 74 483 b 257 965 74 861 119 965 b 440 738 394 965 440 860 l 440 721 l 454 721 l 454 738 b 257 979 454 868 403 979 z m 250 -156 l 228 -242 l 238 -242 l 263 -156 l 263 -47 l 249 -47 l 249 -156 z "},"Ț":{"ha":564,"x_min":0,"x_max":0,"o":"m 275 0 l 289 0 l 289 958 l 508 958 l 508 972 l 56 972 l 56 958 l 275 958 z m 276 -156 l 254 -242 l 264 -242 l 289 -156 l 289 -47 l 275 -47 l 275 -156 z "},"Ḃ":{"ha":503,"x_min":0,"x_max":0,"o":"m 231 1143 l 217 1143 l 217 1035 l 231 1035 z m 246 972 l 56 972 l 56 0 l 246 0 b 447 222 392 0 447 86 l 447 310 b 283 518 447 424 403 504 b 428 707 399 532 428 599 l 428 774 b 246 972 428 901 385 972 z m 204 525 l 69 525 l 69 958 l 246 958 b 414 774 376 958 414 894 l 414 707 b 204 525 414 557 350 525 z m 246 14 l 69 14 l 69 511 l 219 511 b 433 310 361 511 433 457 l 433 222 b 246 14 433 93 383 14 z "},"Ḋ":{"ha":517,"x_min":0,"x_max":0,"o":"m 238 1143 l 224 1143 l 224 1035 l 238 1035 z m 253 972 l 56 972 l 56 0 l 254 0 b 461 242 401 0 461 107 l 461 729 b 253 972 461 865 401 972 z m 254 14 l 69 14 l 69 958 l 253 958 b 447 729 393 958 447 858 l 447 242 b 254 14 447 114 394 14 z "},"Ḟ":{"ha":461,"x_min":0,"x_max":0,"o":"m 238 1142 l 224 1142 l 224 1033 l 238 1033 z m 351 475 l 69 475 l 69 958 l 406 958 l 406 972 l 56 972 l 56 0 l 69 0 l 69 461 l 351 461 z "},"Ṁ":{"ha":674,"x_min":0,"x_max":0,"o":"m 343 1153 l 329 1153 l 329 1040 l 343 1040 z m 346 3 l 604 958 l 604 0 l 618 0 l 618 972 l 594 972 l 336 18 l 81 972 l 56 972 l 56 0 l 69 0 l 69 958 l 326 3 z "},"Ṗ":{"ha":496,"x_min":0,"x_max":0,"o":"m 229 1143 l 215 1143 l 215 1035 l 229 1035 z m 243 972 l 56 972 l 56 0 l 69 0 l 69 419 l 217 419 b 440 644 372 419 440 492 l 440 739 b 243 972 440 872 393 972 z m 217 433 l 69 433 l 69 958 l 243 958 b 426 739 385 958 426 865 l 426 644 b 217 433 426 499 365 433 z "},"Ṡ":{"ha":511,"x_min":0,"x_max":0,"o":"m 263 1144 l 249 1144 l 249 1036 l 263 1036 z m 257 979 b 60 739 117 978 60 879 b 442 235 60 472 442 486 b 256 7 442 110 394 7 b 69 235 117 7 69 110 l 69 281 l 56 281 l 56 235 b 256 -7 56 103 108 -7 b 456 235 403 -7 456 103 b 74 739 456 497 74 483 b 257 965 74 861 119 965 b 440 738 394 965 440 860 l 440 721 l 454 721 l 454 738 b 257 979 454 868 403 979 z "},"Ṫ":{"ha":564,"x_min":0,"x_max":0,"o":"m 289 1146 l 275 1146 l 275 1038 l 289 1038 z m 275 0 l 289 0 l 289 958 l 508 958 l 508 972 l 56 972 l 56 958 l 275 958 z "},"a":{"ha":628,"x_min":0,"x_max":0,"o":"m 129 236 l 497 236 l 558 0 l 572 0 l 321 974 l 301 974 l 56 0 l 69 0 z m 133 250 l 311 956 l 493 250 z "},"á":{"ha":628,"x_min":0,"x_max":0,"o":"m 379 1144 l 360 1144 l 258 1025 l 276 1025 z m 129 236 l 497 236 l 558 0 l 572 0 l 321 974 l 301 974 l 56 0 l 69 0 z m 133 250 l 311 956 l 493 250 z "},"ă":{"ha":628,"x_min":0,"x_max":0,"o":"m 435 1119 l 421 1119 b 311 1032 418 1061 365 1032 b 203 1119 257 1032 204 1061 l 189 1119 b 311 1018 190 1053 250 1018 b 435 1119 374 1018 432 1054 z m 129 236 l 497 236 l 558 0 l 572 0 l 321 974 l 301 974 l 56 0 l 69 0 z m 133 250 l 311 956 l 493 250 z "},"â":{"ha":628,"x_min":0,"x_max":0,"o":"m 213 1024 l 311 1118 l 408 1024 l 429 1024 l 315 1132 l 306 1132 l 193 1024 z m 129 236 l 497 236 l 558 0 l 572 0 l 321 974 l 301 974 l 56 0 l 69 0 z m 133 250 l 311 956 l 493 250 z "},"ä":{"ha":628,"x_min":0,"x_max":0,"o":"m 272 1132 l 258 1132 l 258 1024 l 272 1024 z m 364 1132 l 350 1132 l 350 1024 l 364 1024 z m 129 236 l 497 236 l 558 0 l 572 0 l 321 974 l 301 974 l 56 0 l 69 0 z m 133 250 l 311 956 l 493 250 z "},"à":{"ha":628,"x_min":0,"x_max":0,"o":"m 249 1143 l 229 1143 l 332 1024 l 350 1024 z m 129 236 l 497 236 l 558 0 l 572 0 l 321 974 l 301 974 l 56 0 l 69 0 z m 133 250 l 311 956 l 493 250 z "},"ā":{"ha":628,"x_min":0,"x_max":0,"o":"m 432 1082 l 190 1082 l 190 1069 l 432 1069 z m 129 236 l 497 236 l 558 0 l 572 0 l 321 974 l 301 974 l 56 0 l 69 0 z m 133 250 l 311 956 l 493 250 z "},"ą":{"ha":628,"x_min":0,"x_max":0,"o":"m 571 0 l 572 0 l 321 974 l 301 974 l 56 0 l 69 0 l 129 236 l 497 236 l 557 4 b 489 -128 518 -31 486 -83 b 560 -189 492 -171 524 -187 b 628 -169 583 -189 608 -182 l 628 -153 b 561 -175 611 -167 585 -175 b 503 -128 531 -175 506 -161 b 571 0 500 -85 538 -26 z m 133 250 l 311 956 l 493 250 z "},"å":{"ha":628,"x_min":0,"x_max":0,"o":"m 310 1193 b 226 1113 264 1193 226 1158 b 310 1031 226 1065 264 1031 b 393 1113 356 1031 393 1065 b 310 1193 393 1158 356 1193 z m 310 1179 b 379 1113 347 1179 379 1151 b 310 1044 379 1072 347 1044 b 240 1113 271 1044 240 1072 b 310 1179 240 1151 271 1179 z m 129 236 l 497 236 l 558 0 l 572 0 l 321 974 l 301 974 l 56 0 l 69 0 z m 133 250 l 311 956 l 493 250 z "},"ã":{"ha":628,"x_min":0,"x_max":0,"o":"m 249 1111 b 179 1061 217 1110 194 1088 l 192 1054 b 249 1097 204 1076 222 1097 b 381 1044 294 1099 333 1042 b 440 1094 410 1046 428 1071 l 428 1101 b 381 1058 418 1083 403 1060 b 249 1111 339 1056 299 1113 z m 129 236 l 497 236 l 558 0 l 572 0 l 321 974 l 301 974 l 56 0 l 69 0 z m 133 250 l 311 956 l 493 250 z "},"æ":{"ha":825,"x_min":0,"x_max":0,"o":"m 724 500 l 474 500 l 474 958 l 769 958 l 769 972 l 450 972 l 56 0 l 69 0 l 168 242 l 460 242 l 460 0 l 769 0 l 769 14 l 474 14 l 474 486 l 724 486 z m 174 256 l 460 958 l 460 256 z "},"ǽ":{"ha":825,"x_min":0,"x_max":0,"o":"m 575 1160 l 556 1160 l 454 1040 l 472 1040 z m 724 500 l 474 500 l 474 958 l 769 958 l 769 972 l 450 972 l 56 0 l 69 0 l 168 242 l 460 242 l 460 0 l 769 0 l 769 14 l 474 14 l 474 486 l 724 486 z m 174 256 l 460 958 l 460 256 z "},"b":{"ha":503,"x_min":0,"x_max":0,"o":"m 246 972 l 56 972 l 56 0 l 246 0 b 447 222 392 0 447 86 l 447 310 b 283 518 447 424 403 504 b 428 707 399 532 428 599 l 428 774 b 246 972 428 901 385 972 z m 204 525 l 69 525 l 69 958 l 246 958 b 414 774 376 958 414 894 l 414 707 b 204 525 414 557 350 525 z m 246 14 l 69 14 l 69 511 l 219 511 b 433 310 361 511 433 457 l 433 222 b 246 14 433 93 383 14 z "},"c":{"ha":511,"x_min":0,"x_max":0,"o":"m 256 979 b 56 733 108 979 56 864 l 56 239 b 256 -7 56 108 108 -7 b 456 239 403 -7 456 108 l 456 342 l 442 342 l 442 239 b 256 7 442 115 394 7 b 69 239 117 7 69 115 l 69 733 b 256 965 69 857 117 965 b 442 733 394 965 442 857 l 442 660 l 456 660 l 456 733 b 256 979 456 864 403 979 z "},"ć":{"ha":511,"x_min":0,"x_max":0,"o":"m 347 1164 l 328 1164 l 226 1044 l 244 1044 z m 256 979 b 56 733 108 979 56 864 l 56 239 b 256 -7 56 108 108 -7 b 456 239 403 -7 456 108 l 456 342 l 442 342 l 442 239 b 256 7 442 115 394 7 b 69 239 117 7 69 115 l 69 733 b 256 965 69 857 117 965 b 442 733 394 965 442 857 l 442 660 l 456 660 l 456 733 b 256 979 456 864 403 979 z "},"č":{"ha":511,"x_min":0,"x_max":0,"o":"m 168 1147 l 149 1147 l 261 1039 l 271 1039 l 385 1147 l 364 1147 l 267 1053 z m 256 979 b 56 733 108 979 56 864 l 56 239 b 256 -7 56 108 108 -7 b 456 239 403 -7 456 108 l 456 342 l 442 342 l 442 239 b 256 7 442 115 394 7 b 69 239 117 7 69 115 l 69 733 b 256 965 69 857 117 965 b 442 733 394 965 442 857 l 442 660 l 456 660 l 456 733 b 256 979 456 864 403 979 z "},"ç":{"ha":511,"x_min":0,"x_max":0,"o":"m 256 979 b 56 733 108 979 56 864 l 56 239 b 249 -7 56 110 107 -3 l 249 -67 l 256 -67 b 353 -129 300 -67 353 -74 b 253 -199 353 -181 294 -199 b 150 -128 210 -197 150 -179 l 150 -124 l 136 -124 l 136 -128 b 253 -211 136 -187 201 -211 b 367 -129 303 -212 367 -189 b 263 -54 367 -68 314 -56 l 263 -7 b 456 239 404 -3 456 110 l 456 342 l 442 342 l 442 239 b 256 7 442 115 394 7 b 69 239 117 7 69 115 l 69 733 b 256 965 69 857 117 965 b 442 733 394 965 442 857 l 442 660 l 456 660 l 456 733 b 256 979 456 864 403 979 z "},"ĉ":{"ha":511,"x_min":0,"x_max":0,"o":"m 165 1038 l 264 1132 l 361 1038 l 382 1038 l 268 1146 l 258 1146 l 146 1038 z m 256 979 b 56 733 108 979 56 864 l 56 239 b 256 -7 56 108 108 -7 b 456 239 403 -7 456 108 l 456 342 l 442 342 l 442 239 b 256 7 442 115 394 7 b 69 239 117 7 69 115 l 69 733 b 256 965 69 857 117 965 b 442 733 394 965 442 857 l 442 660 l 456 660 l 456 733 b 256 979 456 864 403 979 z "},"ċ":{"ha":511,"x_min":0,"x_max":0,"o":"m 263 1138 l 249 1138 l 249 1029 l 263 1029 z m 256 979 b 56 733 108 979 56 864 l 56 239 b 256 -7 56 108 108 -7 b 456 239 403 -7 456 108 l 456 342 l 442 342 l 442 239 b 256 7 442 115 394 7 b 69 239 117 7 69 115 l 69 733 b 256 965 69 857 117 965 b 442 733 394 965 442 857 l 442 660 l 456 660 l 456 733 b 256 979 456 864 403 979 z "},"d":{"ha":517,"x_min":0,"x_max":0,"o":"m 253 972 l 56 972 l 56 0 l 254 0 b 461 242 401 0 461 107 l 461 729 b 253 972 461 865 401 972 z m 254 14 l 69 14 l 69 958 l 253 958 b 447 729 393 958 447 858 l 447 242 b 254 14 447 114 394 14 z "},"ð":{"ha":517,"x_min":0,"x_max":0,"o":"m 253 972 l 56 972 l 56 490 l -8 490 l -8 478 l 56 478 l 56 0 l 254 0 b 461 242 401 0 461 107 l 461 729 b 253 972 461 865 401 972 z m 211 478 l 211 490 l 69 490 l 69 958 l 253 958 b 447 729 393 958 447 858 l 447 242 b 254 14 447 114 394 14 l 69 14 l 69 478 z "},"ď":{"ha":517,"x_min":0,"x_max":0,"o":"m 146 1139 l 126 1139 l 239 1031 l 249 1031 l 363 1139 l 342 1139 l 244 1044 z m 253 972 l 56 972 l 56 0 l 254 0 b 461 242 401 0 461 107 l 461 729 b 253 972 461 865 401 972 z m 254 14 l 69 14 l 69 958 l 253 958 b 447 729 393 958 447 858 l 447 242 b 254 14 447 114 394 14 z "},"đ":{"ha":517,"x_min":0,"x_max":0,"o":"m 253 972 l 56 972 l 56 490 l -8 490 l -8 478 l 56 478 l 56 0 l 254 0 b 461 242 401 0 461 107 l 461 729 b 253 972 461 865 401 972 z m 211 478 l 211 490 l 69 490 l 69 958 l 253 958 b 447 729 393 958 447 858 l 447 242 b 254 14 447 114 394 14 l 69 14 l 69 478 z "},"e":{"ha":475,"x_min":0,"x_max":0,"o":"m 365 500 l 69 500 l 69 958 l 419 958 l 419 972 l 56 972 l 56 0 l 419 0 l 419 14 l 69 14 l 69 486 l 365 486 z "},"é":{"ha":475,"x_min":0,"x_max":0,"o":"m 325 1150 l 306 1150 l 204 1031 l 222 1031 z m 365 500 l 69 500 l 69 958 l 419 958 l 419 972 l 56 972 l 56 0 l 419 0 l 419 14 l 69 14 l 69 486 l 365 486 z "},"ĕ":{"ha":475,"x_min":0,"x_max":0,"o":"m 360 1143 l 346 1143 b 236 1056 343 1085 290 1056 b 128 1143 182 1056 129 1085 l 114 1143 b 236 1042 115 1076 175 1042 b 360 1143 299 1042 357 1078 z m 365 500 l 69 500 l 69 958 l 419 958 l 419 972 l 56 972 l 56 0 l 419 0 l 419 14 l 69 14 l 69 486 l 365 486 z "},"ě":{"ha":475,"x_min":0,"x_max":0,"o":"m 146 1140 l 126 1140 l 239 1032 l 249 1032 l 363 1140 l 342 1140 l 244 1046 z m 365 500 l 69 500 l 69 958 l 419 958 l 419 972 l 56 972 l 56 0 l 419 0 l 419 14 l 69 14 l 69 486 l 365 486 z "},"ê":{"ha":475,"x_min":0,"x_max":0,"o":"m 139 1033 l 238 1128 l 335 1033 l 356 1033 l 242 1142 l 232 1142 l 119 1033 z m 365 500 l 69 500 l 69 958 l 419 958 l 419 972 l 56 972 l 56 0 l 419 0 l 419 14 l 69 14 l 69 486 l 365 486 z "},"ë":{"ha":475,"x_min":0,"x_max":0,"o":"m 199 1139 l 185 1139 l 185 1031 l 199 1031 z m 290 1139 l 276 1139 l 276 1031 l 290 1031 z m 365 500 l 69 500 l 69 958 l 419 958 l 419 972 l 56 972 l 56 0 l 419 0 l 419 14 l 69 14 l 69 486 l 365 486 z "},"ė":{"ha":475,"x_min":0,"x_max":0,"o":"m 250 1143 l 236 1143 l 236 1035 l 250 1035 z m 365 500 l 69 500 l 69 958 l 419 958 l 419 972 l 56 972 l 56 0 l 419 0 l 419 14 l 69 14 l 69 486 l 365 486 z "},"è":{"ha":475,"x_min":0,"x_max":0,"o":"m 190 1165 l 171 1165 l 274 1046 l 292 1046 z m 365 500 l 69 500 l 69 958 l 419 958 l 419 972 l 56 972 l 56 0 l 419 0 l 419 14 l 69 14 l 69 486 l 365 486 z "},"ē":{"ha":475,"x_min":0,"x_max":0,"o":"m 347 1088 l 119 1088 l 119 1075 l 347 1075 z m 365 500 l 69 500 l 69 958 l 419 958 l 419 972 l 56 972 l 56 0 l 419 0 l 419 14 l 69 14 l 69 486 l 365 486 z "},"ę":{"ha":475,"x_min":0,"x_max":0,"o":"m 365 500 l 69 500 l 69 958 l 419 958 l 419 972 l 56 972 l 56 0 l 381 0 b 314 -128 350 -31 311 -83 b 385 -189 317 -171 349 -187 b 453 -169 408 -189 433 -182 l 453 -153 b 386 -175 436 -167 410 -175 b 328 -128 356 -175 331 -161 b 397 0 325 -85 364 -26 l 419 0 l 419 14 l 69 14 l 69 486 l 365 486 z "},"f":{"ha":461,"x_min":0,"x_max":0,"o":"m 351 475 l 69 475 l 69 958 l 406 958 l 406 972 l 56 972 l 56 0 l 69 0 l 69 461 l 351 461 z "},"g":{"ha":511,"x_min":0,"x_max":0,"o":"m 256 979 b 56 733 108 979 56 864 l 56 239 b 256 -7 56 108 108 -7 b 456 239 403 -7 456 108 l 456 479 l 278 479 l 278 465 l 442 465 l 442 239 b 256 7 442 115 394 7 b 69 239 117 7 69 115 l 69 733 b 256 965 69 857 117 965 b 442 733 394 965 442 857 l 442 672 l 456 672 l 456 733 b 256 979 456 864 403 979 z "},"ğ":{"ha":511,"x_min":0,"x_max":0,"o":"m 382 1147 l 368 1147 b 258 1060 365 1089 313 1060 b 150 1147 204 1060 151 1089 l 136 1147 b 258 1046 138 1081 197 1046 b 382 1147 321 1046 379 1082 z m 256 979 b 56 733 108 979 56 864 l 56 239 b 256 -7 56 108 108 -7 b 456 239 403 -7 456 108 l 456 479 l 278 479 l 278 465 l 442 465 l 442 239 b 256 7 442 115 394 7 b 69 239 117 7 69 115 l 69 733 b 256 965 69 857 117 965 b 442 733 394 965 442 857 l 442 672 l 456 672 l 456 733 b 256 979 456 864 403 979 z "},"ĝ":{"ha":511,"x_min":0,"x_max":0,"o":"m 160 1046 l 258 1140 l 356 1046 l 376 1046 l 263 1154 l 253 1154 l 140 1046 z m 256 979 b 56 733 108 979 56 864 l 56 239 b 256 -7 56 108 108 -7 b 456 239 403 -7 456 108 l 456 479 l 278 479 l 278 465 l 442 465 l 442 239 b 256 7 442 115 394 7 b 69 239 117 7 69 115 l 69 733 b 256 965 69 857 117 965 b 442 733 394 965 442 857 l 442 672 l 456 672 l 456 733 b 256 979 456 864 403 979 z "},"ġ":{"ha":511,"x_min":0,"x_max":0,"o":"m 276 1146 l 263 1146 l 263 1038 l 276 1038 z m 256 979 b 56 733 108 979 56 864 l 56 239 b 256 -7 56 108 108 -7 b 456 239 403 -7 456 108 l 456 479 l 278 479 l 278 465 l 442 465 l 442 239 b 256 7 442 115 394 7 b 69 239 117 7 69 115 l 69 733 b 256 965 69 857 117 965 b 442 733 394 965 442 857 l 442 672 l 456 672 l 456 733 b 256 979 456 864 403 979 z "},"h":{"ha":514,"x_min":0,"x_max":0,"o":"m 69 479 l 444 479 l 444 0 l 458 0 l 458 972 l 444 972 l 444 493 l 69 493 l 69 972 l 56 972 l 56 0 l 69 0 z "},"ħ":{"ha":514,"x_min":0,"x_max":0,"o":"m 458 747 l 511 747 l 511 760 l 458 760 l 458 972 l 444 972 l 444 760 l 69 760 l 69 972 l 56 972 l 56 760 l 0 760 l 0 747 l 56 747 l 56 0 l 69 0 l 69 479 l 444 479 l 444 0 l 458 0 z m 444 747 l 444 493 l 69 493 l 69 747 z "},"ĥ":{"ha":514,"x_min":0,"x_max":0,"o":"m 158 1042 l 257 1136 l 354 1042 l 375 1042 l 261 1150 l 251 1150 l 139 1042 z m 69 479 l 444 479 l 444 0 l 458 0 l 458 972 l 444 972 l 444 493 l 69 493 l 69 972 l 56 972 l 56 0 l 69 0 z "},"i":{"ha":125,"x_min":0,"x_max":0,"o":"m 69 972 l 56 972 l 56 0 l 69 0 z "},"ı":{"ha":125,"x_min":0,"x_max":0,"o":"m 69 972 l 56 972 l 56 0 l 69 0 z "},"í":{"ha":125,"x_min":0,"x_max":0,"o":"m 126 1151 l 25 1032 l 43 1032 l 146 1151 z m 56 972 l 56 0 l 69 0 l 69 972 z "},"ĭ":{"ha":125,"x_min":0,"x_max":0,"o":"m 186 1133 l 172 1133 b 63 1046 169 1075 117 1046 b -46 1133 8 1046 -44 1075 l -60 1133 b 63 1032 -58 1067 1 1032 b 186 1133 125 1032 183 1068 z m 56 972 l 56 0 l 69 0 l 69 972 z "},"î":{"ha":125,"x_min":0,"x_max":0,"o":"m 67 1139 l 57 1139 l -56 1031 l -36 1031 l 63 1125 l 160 1031 l 181 1031 z m 56 972 l 56 0 l 69 0 l 69 972 z "},"ï":{"ha":125,"x_min":0,"x_max":0,"o":"m 24 1140 l 10 1140 l 10 1032 l 24 1032 z m 115 1140 l 101 1140 l 101 1032 l 115 1032 z m 69 972 l 56 972 l 56 0 l 69 0 z "},"ì":{"ha":125,"x_min":0,"x_max":0,"o":"m -33 1150 l 69 1031 l 88 1031 l -14 1150 z m 56 972 l 56 0 l 69 0 l 69 972 z "},"ĳ":{"ha":475,"x_min":0,"x_max":0,"o":"m 69 972 l 56 972 l 56 0 l 69 0 z m 419 238 l 419 972 l 406 972 l 406 238 b 231 14 406 93 358 25 l 181 14 l 181 0 l 231 0 b 419 238 357 10 419 75 z "},"ī":{"ha":125,"x_min":0,"x_max":0,"o":"m 156 1082 l -31 1082 l -31 1069 l 156 1069 z m 69 972 l 56 972 l 56 0 l 69 0 z "},"į":{"ha":125,"x_min":0,"x_max":0,"o":"m 68 0 l 69 0 l 69 972 l 56 972 l 54 0 l 56 0 b -14 -128 15 -36 -17 -85 b 57 -189 -11 -171 21 -187 b 125 -169 81 -189 106 -182 l 125 -153 b 58 -175 108 -167 82 -175 b 0 -128 28 -175 3 -161 b 68 0 -3 -85 35 -26 z "},"ĩ":{"ha":125,"x_min":0,"x_max":0,"o":"m 194 1104 l 182 1111 b 135 1068 172 1093 157 1069 b 3 1121 93 1065 53 1122 b -67 1071 -29 1119 -51 1097 l -54 1064 b 3 1107 -42 1086 -24 1107 b 135 1054 49 1108 88 1051 b 194 1104 164 1056 182 1081 z m 69 972 l 56 972 l 56 0 l 69 0 z "},"j":{"ha":350,"x_min":0,"x_max":0,"o":"m 56 14 l 56 0 b 114 1 76 -1 96 0 b 294 238 233 11 294 81 l 294 972 l 281 972 l 281 238 b 114 15 281 92 231 26 b 56 14 96 14 76 13 z "},"ȷ":{"ha":350,"x_min":0,"x_max":0,"o":"m 56 14 l 56 0 b 114 1 76 -1 96 0 b 294 238 233 11 294 81 l 294 972 l 281 972 l 281 238 b 114 15 281 92 231 26 b 56 14 96 14 76 13 z "},"ĵ":{"ha":350,"x_min":0,"x_max":0,"o":"m 189 1033 l 288 1128 l 385 1033 l 406 1033 l 292 1142 l 282 1142 l 169 1033 z m 294 238 l 294 972 l 281 972 l 281 238 b 114 15 281 92 231 26 b 56 14 96 14 76 13 l 56 0 b 114 1 76 -1 96 0 b 294 238 233 11 294 81 z "},"k":{"ha":554,"x_min":0,"x_max":0,"o":"m 147 496 l 482 0 l 499 0 l 156 508 l 469 972 l 453 972 l 69 407 l 69 972 l 56 972 l 56 0 l 69 0 l 69 382 z "},"ĸ":{"ha":554,"x_min":0,"x_max":0,"o":"m 147 496 l 482 0 l 499 0 l 156 508 l 469 972 l 453 972 l 69 407 l 69 972 l 56 972 l 56 0 l 69 0 l 69 382 z "},"l":{"ha":461,"x_min":0,"x_max":0,"o":"m 56 0 l 406 0 l 406 14 l 69 14 l 69 972 l 56 972 z "},"ĺ":{"ha":461,"x_min":0,"x_max":0,"o":"m 151 1153 l 132 1153 l 31 1033 l 49 1033 z m 56 0 l 406 0 l 406 14 l 69 14 l 69 972 l 56 972 z "},"ľ":{"ha":461,"x_min":0,"x_max":0,"o":"m 56 0 l 406 0 l 406 14 l 69 14 l 69 972 l 56 972 z m 304 864 l 282 778 l 292 778 l 317 864 l 317 972 l 303 972 l 303 864 z "},"ŀ":{"ha":461,"x_min":0,"x_max":0,"o":"m 56 0 l 406 0 l 406 14 l 69 14 l 69 972 l 56 972 z m 251 547 l 238 547 l 238 439 l 251 439 z "},"ł":{"ha":482,"x_min":0,"x_max":0,"o":"m 76 467 l 76 0 l 426 0 l 426 14 l 90 14 l 90 481 l 204 586 l 204 604 l 90 499 l 90 972 l 76 972 l 76 485 l 0 419 l 0 401 z "},"m":{"ha":674,"x_min":0,"x_max":0,"o":"m 346 3 l 604 958 l 604 0 l 618 0 l 618 972 l 594 972 l 336 18 l 81 972 l 56 972 l 56 0 l 69 0 l 69 958 l 326 3 z "},"n":{"ha":515,"x_min":0,"x_max":0,"o":"m 69 0 l 69 958 l 439 0 l 460 0 l 460 972 l 446 972 l 446 18 l 79 972 l 56 972 l 56 0 z "},"ń":{"ha":515,"x_min":0,"x_max":0,"o":"m 354 1154 l 335 1154 l 233 1035 l 251 1035 z m 69 1 l 69 960 l 439 1 l 460 1 l 460 974 l 446 974 l 446 19 l 79 974 l 56 974 l 56 1 z "},"ŉ":{"ha":585,"x_min":0,"x_max":0,"o":"m 36 864 l 14 778 l 24 778 l 49 864 l 49 972 l 35 972 l 35 864 z m 139 0 l 139 958 l 508 0 l 529 0 l 529 972 l 515 972 l 515 18 l 149 972 l 125 972 l 125 0 z "},"ň":{"ha":515,"x_min":0,"x_max":0,"o":"m 163 1150 l 143 1150 l 256 1042 l 265 1042 l 379 1150 l 358 1150 l 261 1056 z m 69 0 l 69 958 l 439 0 l 460 0 l 460 972 l 446 972 l 446 18 l 79 972 l 56 972 l 56 0 z "},"ñ":{"ha":515,"x_min":0,"x_max":0,"o":"m 390 1113 l 378 1119 b 331 1076 368 1101 353 1078 b 199 1129 289 1074 249 1131 b 129 1079 167 1128 144 1106 l 142 1072 b 199 1115 154 1094 172 1115 b 331 1063 244 1117 283 1060 b 390 1113 360 1064 378 1089 z m 69 0 l 69 958 l 439 0 l 460 0 l 460 972 l 446 972 l 446 18 l 79 972 l 56 972 l 56 0 z "},"o":{"ha":518,"x_min":0,"x_max":0,"o":"m 56 733 l 56 239 b 258 -7 56 106 111 -7 b 463 239 407 -7 463 106 l 463 733 b 258 979 463 867 407 979 b 56 733 111 979 56 867 z m 69 239 l 69 733 b 258 965 69 858 118 965 b 449 733 399 965 449 858 l 449 239 b 258 7 449 113 399 7 b 69 239 118 7 69 113 z "},"ó":{"ha":518,"x_min":0,"x_max":0,"o":"m 342 1164 l 322 1164 l 221 1044 l 239 1044 z m 258 979 b 56 733 111 979 56 867 l 56 239 b 258 -7 56 106 111 -7 b 463 239 407 -7 463 106 l 463 733 b 258 979 463 867 407 979 z m 258 965 b 449 733 399 965 449 858 l 449 239 b 258 7 449 113 399 7 b 69 239 118 7 69 113 l 69 733 b 258 965 69 858 118 965 z "},"ŏ":{"ha":518,"x_min":0,"x_max":0,"o":"m 382 1147 l 368 1147 b 258 1060 365 1089 313 1060 b 150 1147 204 1060 151 1089 l 136 1147 b 258 1046 138 1081 197 1046 b 382 1147 321 1046 379 1082 z m 258 979 b 56 733 111 979 56 867 l 56 239 b 258 -7 56 106 111 -7 b 463 239 407 -7 463 106 l 463 733 b 258 979 463 867 407 979 z m 258 965 b 449 733 399 965 449 858 l 449 239 b 258 7 449 113 399 7 b 69 239 118 7 69 113 l 69 733 b 258 965 69 858 118 965 z "},"ô":{"ha":518,"x_min":0,"x_max":0,"o":"m 160 1042 l 258 1136 l 356 1042 l 376 1042 l 263 1150 l 253 1150 l 140 1042 z m 258 979 b 56 733 111 979 56 867 l 56 239 b 258 -7 56 106 111 -7 b 463 239 407 -7 463 106 l 463 733 b 258 979 463 867 407 979 z m 258 965 b 449 733 399 965 449 858 l 449 239 b 258 7 449 113 399 7 b 69 239 118 7 69 113 l 69 733 b 258 965 69 858 118 965 z "},"ö":{"ha":518,"x_min":0,"x_max":0,"o":"m 219 1150 l 206 1150 l 206 1042 l 219 1042 z m 311 1150 l 297 1150 l 297 1042 l 311 1042 z m 258 979 b 56 733 111 979 56 867 l 56 239 b 258 -7 56 106 111 -7 b 463 239 407 -7 463 106 l 463 733 b 258 979 463 867 407 979 z m 258 965 b 449 733 399 965 449 858 l 449 239 b 258 7 449 113 399 7 b 69 239 118 7 69 113 l 69 733 b 258 965 69 858 118 965 z "},"ò":{"ha":518,"x_min":0,"x_max":0,"o":"m 194 1164 l 175 1164 l 278 1044 l 296 1044 z m 258 979 b 56 733 111 979 56 867 l 56 239 b 258 -7 56 106 111 -7 b 463 239 407 -7 463 106 l 463 733 b 258 979 463 867 407 979 z m 258 965 b 449 733 399 965 449 858 l 449 239 b 258 7 449 113 399 7 b 69 239 118 7 69 113 l 69 733 b 258 965 69 858 118 965 z "},"ő":{"ha":518,"x_min":0,"x_max":0,"o":"m 314 1164 l 294 1164 l 193 1044 l 211 1044 z m 396 1164 l 376 1164 l 275 1044 l 293 1044 z m 258 979 b 56 733 111 979 56 867 l 56 239 b 258 -7 56 106 111 -7 b 463 239 407 -7 463 106 l 463 733 b 258 979 463 867 407 979 z m 258 965 b 449 733 399 965 449 858 l 449 239 b 258 7 449 113 399 7 b 69 239 118 7 69 113 l 69 733 b 258 965 69 858 118 965 z "},"ō":{"ha":518,"x_min":0,"x_max":0,"o":"m 374 1083 l 149 1083 l 149 1071 l 374 1071 z m 258 979 b 56 733 111 979 56 867 l 56 239 b 258 -7 56 106 111 -7 b 463 239 407 -7 463 106 l 463 733 b 258 979 463 867 407 979 z m 258 965 b 449 733 399 965 449 858 l 449 239 b 258 7 449 113 399 7 b 69 239 118 7 69 113 l 69 733 b 258 965 69 858 118 965 z "},"ø":{"ha":518,"x_min":0,"x_max":0,"o":"m 258 979 b 56 733 111 979 56 867 l 56 239 b 92 81 56 179 67 124 l 60 0 l 71 -4 l 100 68 b 258 -7 132 22 183 -7 b 463 239 407 -7 463 106 l 463 733 b 425 892 463 793 451 849 l 454 968 l 443 972 l 417 906 b 258 979 383 950 333 979 z m 258 965 b 410 889 332 965 381 936 l 97 97 b 69 239 78 138 69 186 l 69 733 b 258 965 69 858 118 965 z m 106 82 l 418 875 b 449 733 439 836 449 786 l 449 239 b 258 7 449 113 399 7 b 106 82 183 7 135 36 z "},"ǿ":{"ha":518,"x_min":0,"x_max":0,"o":"m 336 1164 l 235 1044 l 253 1044 l 356 1164 z m 425 892 l 457 972 l 443 972 l 417 906 b 258 979 383 950 333 979 b 56 733 111 979 56 867 l 56 239 b 92 81 56 179 67 124 l 60 0 l 74 0 l 100 68 b 258 -7 132 22 183 -7 b 463 239 407 -7 463 106 l 463 733 b 425 892 463 793 451 849 z m 258 965 b 410 889 332 965 381 936 l 97 97 b 69 239 78 138 69 186 l 69 733 b 258 965 69 858 118 965 z m 106 82 l 418 875 b 449 733 439 836 449 786 l 449 239 b 258 7 449 113 399 7 b 106 82 183 7 135 36 z "},"õ":{"ha":518,"x_min":0,"x_max":0,"o":"m 397 1107 l 385 1114 b 338 1071 375 1096 360 1072 b 206 1124 296 1068 256 1125 b 136 1074 174 1122 151 1100 l 149 1067 b 206 1110 161 1089 179 1110 b 338 1057 251 1111 290 1054 b 397 1107 367 1058 385 1083 z m 258 979 b 56 733 111 979 56 867 l 56 239 b 258 -7 56 106 111 -7 b 463 239 407 -7 463 106 l 463 733 b 258 979 463 867 407 979 z m 258 965 b 449 733 399 965 449 858 l 449 239 b 258 7 449 113 399 7 b 69 239 118 7 69 113 l 69 733 b 258 965 69 858 118 965 z "},"œ":{"ha":775,"x_min":0,"x_max":0,"o":"m 674 500 l 422 500 l 422 958 l 719 958 l 719 972 l 243 972 b 56 729 101 972 56 853 l 56 243 b 243 0 56 119 101 0 l 719 0 l 719 14 l 422 14 l 422 486 l 674 486 z m 243 958 l 408 958 l 408 14 l 243 14 b 69 243 110 14 69 128 l 69 729 b 243 958 69 844 110 958 z "},"p":{"ha":496,"x_min":0,"x_max":0,"o":"m 243 972 l 56 972 l 56 0 l 69 0 l 69 419 l 217 419 b 440 644 372 419 440 492 l 440 739 b 243 972 440 872 393 972 z m 217 433 l 69 433 l 69 958 l 243 958 b 426 739 385 958 426 865 l 426 644 b 217 433 426 499 365 433 z "},"þ":{"ha":524,"x_min":0,"x_max":0,"o":"m 243 769 l 69 769 l 69 972 l 56 972 l 56 0 l 69 0 l 69 217 l 217 217 b 440 442 372 217 440 289 l 440 536 b 243 769 440 669 393 769 z m 217 231 l 69 231 l 69 756 l 243 756 b 426 536 385 756 426 663 l 426 442 b 217 231 426 296 365 231 z "},"q":{"ha":535,"x_min":0,"x_max":0,"o":"m 260 979 b 56 733 111 979 56 867 l 56 239 b 260 -7 56 106 111 -7 b 399 44 321 -7 367 13 b 504 -8 424 7 458 -8 l 519 -8 l 519 6 l 504 6 b 408 54 463 6 431 18 b 464 239 447 100 464 165 l 464 733 b 260 979 464 867 408 979 z m 260 965 b 450 733 400 965 450 858 l 450 239 b 260 7 450 113 400 7 b 69 239 119 7 69 113 l 69 733 b 260 965 69 858 119 965 z "},"r":{"ha":524,"x_min":0,"x_max":0,"o":"m 243 972 l 56 972 l 56 0 l 69 0 l 69 456 l 197 456 b 426 268 332 456 426 418 l 426 115 b 451 0 426 78 431 32 l 468 0 b 440 115 444 29 440 79 l 440 268 b 278 461 440 376 390 446 b 440 667 390 478 440 544 l 440 754 b 243 972 440 886 386 972 z m 197 469 l 69 469 l 69 958 l 243 958 b 426 754 378 958 426 879 l 426 667 b 197 469 426 506 342 469 z "},"ŕ":{"ha":524,"x_min":0,"x_max":0,"o":"m 322 1164 l 303 1164 l 201 1044 l 219 1044 z m 243 972 l 56 972 l 56 0 l 69 0 l 69 456 l 197 456 b 426 268 332 456 426 418 l 426 115 b 451 0 426 78 431 32 l 468 0 b 440 115 444 29 440 79 l 440 268 b 278 461 440 376 390 446 b 440 667 390 478 440 544 l 440 754 b 243 972 440 886 386 972 z m 197 469 l 69 469 l 69 958 l 243 958 b 426 754 378 958 426 879 l 426 667 b 197 469 426 506 342 469 z "},"ř":{"ha":524,"x_min":0,"x_max":0,"o":"m 135 1151 l 115 1151 l 228 1043 l 238 1043 l 351 1151 l 331 1151 l 233 1057 z m 243 972 l 56 972 l 56 0 l 69 0 l 69 456 l 197 456 b 426 268 332 456 426 418 l 426 115 b 451 0 426 78 431 32 l 468 0 b 440 115 444 29 440 79 l 440 268 b 278 461 440 376 390 446 b 440 667 390 478 440 544 l 440 754 b 243 972 440 886 386 972 z m 197 469 l 69 469 l 69 958 l 243 958 b 426 754 378 958 426 879 l 426 667 b 197 469 426 506 342 469 z "},"s":{"ha":511,"x_min":0,"x_max":0,"o":"m 257 979 b 60 739 117 978 60 879 b 442 235 60 472 442 486 b 256 7 442 110 394 7 b 69 235 117 7 69 110 l 69 281 l 56 281 l 56 235 b 256 -7 56 103 108 -7 b 456 235 403 -7 456 103 b 74 739 456 497 74 483 b 257 965 74 861 119 965 b 440 738 394 965 440 860 l 440 721 l 454 721 l 454 738 b 257 979 454 868 403 979 z "},"ś":{"ha":511,"x_min":0,"x_max":0,"o":"m 354 1164 l 335 1164 l 233 1044 l 251 1044 z m 257 979 b 60 739 117 978 60 879 b 442 235 60 472 442 486 b 256 7 442 110 394 7 b 69 235 117 7 69 110 l 69 281 l 56 281 l 56 235 b 256 -7 56 103 108 -7 b 456 235 403 -7 456 103 b 74 739 456 497 74 483 b 257 965 74 861 119 965 b 440 738 394 965 440 860 l 440 721 l 454 721 l 454 738 b 257 979 454 868 403 979 z "},"š":{"ha":511,"x_min":0,"x_max":0,"o":"m 163 1151 l 143 1151 l 256 1043 l 265 1043 l 379 1151 l 358 1151 l 261 1057 z m 257 979 b 60 739 117 978 60 879 b 442 235 60 472 442 486 b 256 7 442 110 394 7 b 69 235 117 7 69 110 l 69 281 l 56 281 l 56 235 b 256 -7 56 103 108 -7 b 456 235 403 -7 456 103 b 74 739 456 497 74 483 b 257 965 74 861 119 965 b 440 738 394 965 440 860 l 440 721 l 454 721 l 454 738 b 257 979 454 868 403 979 z "},"ş":{"ha":511,"x_min":0,"x_max":0,"o":"m 257 979 b 60 739 117 978 60 879 b 442 235 60 472 442 486 b 256 7 442 110 394 7 b 69 235 117 7 69 110 l 69 281 l 56 281 l 56 235 b 253 -7 56 104 108 -6 l 253 -67 l 260 -67 b 357 -129 304 -67 357 -74 b 257 -199 357 -181 299 -199 b 154 -128 214 -197 154 -179 l 154 -124 l 140 -124 l 140 -128 b 257 -211 140 -187 206 -211 b 371 -129 307 -212 371 -189 b 267 -54 371 -68 318 -56 l 267 -7 b 456 235 406 -1 456 106 b 74 739 456 497 74 483 b 257 965 74 861 119 965 b 440 738 394 965 440 860 l 440 721 l 454 721 l 454 738 b 257 979 454 868 403 979 z "},"ŝ":{"ha":511,"x_min":0,"x_max":0,"o":"m 168 1042 l 267 1136 l 364 1042 l 385 1042 l 271 1150 l 261 1150 l 149 1042 z m 257 979 b 60 739 117 978 60 879 b 442 235 60 472 442 486 b 256 7 442 110 394 7 b 69 235 117 7 69 110 l 69 281 l 56 281 l 56 235 b 256 -7 56 103 108 -7 b 456 235 403 -7 456 103 b 74 739 456 497 74 483 b 257 965 74 861 119 965 b 440 738 394 965 440 860 l 440 721 l 454 721 l 454 738 b 257 979 454 868 403 979 z "},"ß":{"ha":960,"x_min":0,"x_max":0,"o":"m 250 979 b 53 739 110 978 53 879 b 435 235 53 472 435 486 b 249 7 435 110 388 7 b 63 235 110 7 63 110 l 63 281 l 49 281 l 49 235 b 249 -7 49 103 101 -7 b 449 235 396 -7 449 103 b 67 739 449 497 67 483 b 250 965 67 861 113 965 b 433 738 388 965 433 860 l 433 721 l 447 721 l 447 738 b 250 979 447 868 396 979 z m 711 979 b 514 739 571 978 514 879 b 896 235 514 472 896 486 b 710 7 896 110 849 7 b 524 235 571 7 524 110 l 524 281 l 510 281 l 510 235 b 710 -7 510 103 563 -7 b 910 235 857 -7 910 103 b 528 739 910 497 528 483 b 711 965 528 861 574 965 b 894 738 849 965 894 860 l 894 721 l 908 721 l 908 738 b 711 979 908 868 857 979 z "},"t":{"ha":513,"x_min":0,"x_max":0,"o":"m 247 0 l 261 0 l 261 958 l 481 958 l 481 972 l 28 972 l 28 958 l 247 958 z "},"ŧ":{"ha":564,"x_min":0,"x_max":0,"o":"m 403 629 l 289 629 l 289 958 l 508 958 l 508 972 l 56 972 l 56 958 l 275 958 l 275 629 l 161 629 l 161 617 l 275 617 l 275 0 l 289 0 l 289 617 l 403 617 z "},"ť":{"ha":564,"x_min":0,"x_max":0,"o":"m 183 1142 l 164 1142 l 276 1033 l 286 1033 l 400 1142 l 379 1142 l 282 1047 z m 275 0 l 289 0 l 289 958 l 508 958 l 508 972 l 56 972 l 56 958 l 275 958 z "},"u":{"ha":504,"x_min":0,"x_max":0,"o":"m 69 242 l 69 972 l 56 972 l 56 242 b 253 -7 56 111 104 -7 b 449 242 400 -7 449 111 l 449 972 l 435 972 l 435 242 b 253 7 435 118 392 7 b 69 242 113 7 69 118 z "},"ú":{"ha":504,"x_min":0,"x_max":0,"o":"m 349 1164 l 329 1164 l 228 1044 l 246 1044 z m 449 242 l 449 972 l 435 972 l 435 242 b 253 7 435 118 392 7 b 69 242 113 7 69 118 l 69 972 l 56 972 l 56 242 b 253 -7 56 111 104 -7 b 449 242 400 -7 449 111 z "},"ŭ":{"ha":504,"x_min":0,"x_max":0,"o":"m 378 1133 l 364 1133 b 254 1046 361 1075 308 1046 b 146 1133 200 1046 147 1075 l 132 1133 b 254 1032 133 1067 193 1032 b 378 1133 317 1032 375 1068 z m 449 242 l 449 972 l 435 972 l 435 242 b 253 7 435 118 392 7 b 69 242 113 7 69 118 l 69 972 l 56 972 l 56 242 b 253 -7 56 111 104 -7 b 449 242 400 -7 449 111 z "},"û":{"ha":504,"x_min":0,"x_max":0,"o":"m 156 1042 l 254 1136 l 351 1042 l 372 1042 l 258 1150 l 249 1150 l 136 1042 z m 449 242 l 449 972 l 435 972 l 435 242 b 253 7 435 118 392 7 b 69 242 113 7 69 118 l 69 972 l 56 972 l 56 242 b 253 -7 56 111 104 -7 b 449 242 400 -7 449 111 z "},"ü":{"ha":504,"x_min":0,"x_max":0,"o":"m 213 1146 l 199 1146 l 199 1038 l 213 1038 z m 304 1146 l 290 1146 l 290 1038 l 304 1038 z m 449 242 l 449 972 l 435 972 l 435 242 b 253 7 435 118 392 7 b 69 242 113 7 69 118 l 69 972 l 56 972 l 56 242 b 253 -7 56 111 104 -7 b 449 242 400 -7 449 111 z "},"ù":{"ha":504,"x_min":0,"x_max":0,"o":"m 186 1151 l 167 1151 l 269 1032 l 288 1032 z m 449 242 l 449 972 l 435 972 l 435 242 b 253 7 435 118 392 7 b 69 242 113 7 69 118 l 69 972 l 56 972 l 56 242 b 253 -7 56 111 104 -7 b 449 242 400 -7 449 111 z "},"ű":{"ha":504,"x_min":0,"x_max":0,"o":"m 306 1160 l 286 1160 l 185 1040 l 203 1040 z m 388 1160 l 368 1160 l 267 1040 l 285 1040 z m 449 242 l 449 972 l 435 972 l 435 242 b 253 7 435 118 392 7 b 69 242 113 7 69 118 l 69 972 l 56 972 l 56 242 b 253 -7 56 111 104 -7 b 449 242 400 -7 449 111 z "},"ū":{"ha":504,"x_min":0,"x_max":0,"o":"m 365 1082 l 151 1082 l 151 1069 l 365 1069 z m 449 242 l 449 972 l 435 972 l 435 242 b 253 7 435 118 392 7 b 69 242 113 7 69 118 l 69 972 l 56 972 l 56 242 b 253 -7 56 111 104 -7 b 449 242 400 -7 449 111 z "},"ģ":{"ha":511,"x_min":0,"x_max":0,"o":"m 256 979 b 56 733 108 979 56 864 l 56 239 b 256 -7 56 108 108 -7 b 456 239 403 -7 456 108 l 456 479 l 278 479 l 278 465 l 442 465 l 442 239 b 256 7 442 115 394 7 b 69 239 117 7 69 115 l 69 733 b 256 965 69 857 117 965 b 442 733 394 965 442 857 l 442 672 l 456 672 l 456 733 b 256 979 456 864 403 979 z m 250 -156 l 228 -242 l 238 -242 l 263 -156 l 263 -47 l 249 -47 l 249 -156 z "},"ķ":{"ha":554,"x_min":0,"x_max":0,"o":"m 147 496 l 482 0 l 499 0 l 156 508 l 469 972 l 453 972 l 69 407 l 69 972 l 56 972 l 56 0 l 69 0 l 69 382 z m 250 -156 l 228 -242 l 238 -242 l 263 -156 l 263 -47 l 249 -47 l 249 -156 z "},"ļ":{"ha":461,"x_min":0,"x_max":0,"o":"m 56 0 l 406 0 l 406 14 l 69 14 l 69 972 l 56 972 z m 250 -156 l 228 -242 l 238 -242 l 263 -156 l 263 -47 l 249 -47 l 249 -156 z "},"ņ":{"ha":515,"x_min":0,"x_max":0,"o":"m 69 0 l 69 958 l 439 0 l 460 0 l 460 972 l 446 972 l 446 18 l 79 972 l 56 972 l 56 0 z m 250 -156 l 228 -242 l 238 -242 l 263 -156 l 263 -47 l 249 -47 l 249 -156 z "},"ŗ":{"ha":524,"x_min":0,"x_max":0,"o":"m 243 972 l 56 972 l 56 0 l 69 0 l 69 456 l 197 456 b 426 268 332 456 426 418 l 426 115 b 451 0 426 78 431 32 l 468 0 b 440 115 444 29 440 79 l 440 268 b 278 461 440 376 390 446 b 440 667 390 478 440 544 l 440 754 b 243 972 440 886 386 972 z m 197 469 l 69 469 l 69 958 l 243 958 b 426 754 378 958 426 879 l 426 667 b 197 469 426 506 342 469 z m 250 -156 l 228 -242 l 238 -242 l 263 -156 l 263 -47 l 249 -47 l 249 -156 z "},"ţ":{"ha":564,"x_min":0,"x_max":0,"o":"m 288 0 l 289 0 l 289 958 l 508 958 l 508 972 l 56 972 l 56 958 l 275 958 l 275 0 l 276 0 l 276 -61 l 282 -61 b 379 -124 326 -61 379 -68 b 279 -193 379 -175 321 -193 b 176 -122 236 -192 176 -174 l 176 -118 l 163 -118 l 163 -122 b 279 -206 163 -182 228 -206 b 393 -124 329 -207 393 -183 b 288 -49 393 -62 339 -50 z "},"ș":{"ha":511,"x_min":0,"x_max":0,"o":"m 257 979 b 60 739 117 978 60 879 b 442 235 60 472 442 486 b 256 7 442 110 394 7 b 69 235 117 7 69 110 l 69 281 l 56 281 l 56 235 b 256 -7 56 103 108 -7 b 456 235 403 -7 456 103 b 74 739 456 497 74 483 b 257 965 74 861 119 965 b 440 738 394 965 440 860 l 440 721 l 454 721 l 454 738 b 257 979 454 868 403 979 z m 250 -156 l 228 -242 l 238 -242 l 263 -156 l 263 -47 l 249 -47 l 249 -156 z "},"ț":{"ha":564,"x_min":0,"x_max":0,"o":"m 275 0 l 289 0 l 289 958 l 508 958 l 508 972 l 56 972 l 56 958 l 275 958 z m 276 -156 l 254 -242 l 264 -242 l 289 -156 l 289 -47 l 275 -47 l 275 -156 z "},"ḃ":{"ha":503,"x_min":0,"x_max":0,"o":"m 231 1143 l 217 1143 l 217 1035 l 231 1035 z m 246 972 l 56 972 l 56 0 l 246 0 b 447 222 392 0 447 86 l 447 310 b 283 518 447 424 403 504 b 428 707 399 532 428 599 l 428 774 b 246 972 428 901 385 972 z m 204 525 l 69 525 l 69 958 l 246 958 b 414 774 376 958 414 894 l 414 707 b 204 525 414 557 350 525 z m 246 14 l 69 14 l 69 511 l 219 511 b 433 310 361 511 433 457 l 433 222 b 246 14 433 93 383 14 z "},"ḋ":{"ha":517,"x_min":0,"x_max":0,"o":"m 238 1143 l 224 1143 l 224 1035 l 238 1035 z m 253 972 l 56 972 l 56 0 l 254 0 b 461 242 401 0 461 107 l 461 729 b 253 972 461 865 401 972 z m 254 14 l 69 14 l 69 958 l 253 958 b 447 729 393 958 447 858 l 447 242 b 254 14 447 114 394 14 z "},"ḟ":{"ha":461,"x_min":0,"x_max":0,"o":"m 251 1143 l 238 1143 l 238 1035 l 251 1035 z m 351 475 l 69 475 l 69 958 l 406 958 l 406 972 l 56 972 l 56 0 l 69 0 l 69 461 l 351 461 z "},"ṁ":{"ha":674,"x_min":0,"x_max":0,"o":"m 343 1154 l 329 1154 l 329 1046 l 343 1046 z m 346 3 l 604 958 l 604 0 l 618 0 l 618 972 l 594 972 l 336 18 l 81 972 l 56 972 l 56 0 l 69 0 l 69 958 l 326 3 z "},"ṗ":{"ha":496,"x_min":0,"x_max":0,"o":"m 240 1143 l 226 1143 l 226 1035 l 240 1035 z m 243 972 l 56 972 l 56 0 l 69 0 l 69 419 l 217 419 b 440 644 372 419 440 492 l 440 739 b 243 972 440 872 393 972 z m 217 433 l 69 433 l 69 958 l 243 958 b 426 739 385 958 426 865 l 426 644 b 217 433 426 499 365 433 z "},"ṡ":{"ha":511,"x_min":0,"x_max":0,"o":"m 275 1157 l 261 1157 l 261 1049 l 275 1049 z m 257 979 b 60 739 117 978 60 879 b 442 235 60 472 442 486 b 256 7 442 110 394 7 b 69 235 117 7 69 110 l 69 281 l 56 281 l 56 235 b 256 -7 56 103 108 -7 b 456 235 403 -7 456 103 b 74 739 456 497 74 483 b 257 965 74 861 119 965 b 440 738 394 965 440 860 l 440 721 l 454 721 l 454 738 b 257 979 454 868 403 979 z "},"ṫ":{"ha":564,"x_min":0,"x_max":0,"o":"m 283 1143 l 269 1143 l 269 1035 l 283 1035 z m 269 0 l 283 0 l 283 958 l 503 958 l 503 972 l 50 972 l 50 958 l 269 958 z "},"ų":{"ha":504,"x_min":0,"x_max":0,"o":"m 449 242 l 449 972 l 435 972 l 435 242 b 253 7 435 118 392 7 b 69 242 113 7 69 118 l 69 972 l 56 972 l 56 242 b 253 -7 56 111 104 -7 b 286 -4 264 -7 275 -6 b 226 -128 256 -36 224 -86 b 297 -189 229 -171 261 -187 b 365 -169 321 -189 346 -182 l 365 -153 b 299 -175 349 -167 322 -175 b 240 -128 268 -175 243 -161 b 310 0 238 -85 276 -26 b 449 242 413 26 449 129 z "},"ů":{"ha":504,"x_min":0,"x_max":0,"o":"m 261 1186 b 178 1106 215 1186 178 1151 b 261 1024 178 1058 215 1024 b 344 1106 307 1024 344 1058 b 261 1186 344 1151 307 1186 z m 261 1172 b 331 1106 299 1172 331 1144 b 261 1038 331 1065 299 1038 b 192 1106 222 1038 192 1065 b 261 1172 192 1144 222 1172 z m 449 242 l 449 972 l 435 972 l 435 242 b 253 7 435 118 392 7 b 69 242 113 7 69 118 l 69 972 l 56 972 l 56 242 b 253 -7 56 111 104 -7 b 449 242 400 -7 449 111 z "},"ũ":{"ha":504,"x_min":0,"x_max":0,"o":"m 385 1107 l 372 1114 b 325 1071 363 1096 347 1072 b 193 1124 283 1068 243 1125 b 124 1074 161 1122 139 1100 l 136 1067 b 193 1110 149 1089 167 1110 b 325 1057 239 1111 278 1054 b 385 1107 354 1058 372 1083 z m 449 242 l 449 972 l 435 972 l 435 242 b 253 7 435 118 392 7 b 69 242 113 7 69 118 l 69 972 l 56 972 l 56 242 b 253 -7 56 111 104 -7 b 449 242 400 -7 449 111 z "},"v":{"ha":628,"x_min":0,"x_max":0,"o":"m 71 972 l 56 972 l 306 0 l 326 0 l 572 972 l 557 972 l 315 15 z "},"w":{"ha":869,"x_min":0,"x_max":0,"o":"m 261 0 l 443 953 l 614 0 l 632 0 l 814 972 l 800 972 l 624 26 l 454 967 l 432 967 l 251 19 l 69 972 l 56 972 l 240 0 z "},"ẃ":{"ha":869,"x_min":0,"x_max":0,"o":"m 518 1151 l 499 1151 l 397 1032 l 415 1032 z m 261 0 l 443 953 l 614 0 l 632 0 l 814 972 l 800 972 l 624 26 l 454 967 l 432 967 l 251 19 l 69 972 l 56 972 l 240 0 z "},"ŵ":{"ha":869,"x_min":0,"x_max":0,"o":"m 342 1038 l 440 1132 l 538 1038 l 558 1038 l 444 1146 l 435 1146 l 322 1038 z m 261 0 l 443 953 l 614 0 l 632 0 l 814 972 l 800 972 l 624 26 l 454 967 l 432 967 l 251 19 l 69 972 l 56 972 l 240 0 z "},"ẅ":{"ha":869,"x_min":0,"x_max":0,"o":"m 404 1150 l 390 1150 l 390 1042 l 404 1042 z m 496 1150 l 482 1150 l 482 1042 l 496 1042 z m 261 0 l 443 953 l 614 0 l 632 0 l 814 972 l 800 972 l 624 26 l 454 967 l 432 967 l 251 19 l 69 972 l 56 972 l 240 0 z "},"ẁ":{"ha":869,"x_min":0,"x_max":0,"o":"m 392 1164 l 372 1164 l 475 1044 l 493 1044 z m 261 0 l 443 953 l 614 0 l 632 0 l 814 972 l 800 972 l 624 26 l 454 967 l 432 967 l 251 19 l 69 972 l 56 972 l 240 0 z "},"x":{"ha":619,"x_min":0,"x_max":0,"o":"m 310 490 l 549 0 l 564 0 l 318 506 l 547 972 l 532 972 l 310 521 l 88 972 l 72 972 l 303 506 l 56 0 l 72 0 z "},"y":{"ha":592,"x_min":0,"x_max":0,"o":"m 288 403 l 288 0 l 301 0 l 301 403 l 536 972 l 521 972 l 294 422 l 69 972 l 56 972 z "},"ý":{"ha":592,"x_min":0,"x_max":0,"o":"m 389 1150 l 369 1150 l 268 1031 l 286 1031 z m 288 403 l 288 0 l 301 0 l 301 403 l 536 972 l 521 972 l 294 422 l 69 972 l 56 972 z "},"ŷ":{"ha":592,"x_min":0,"x_max":0,"o":"m 197 1036 l 296 1131 l 393 1036 l 414 1036 l 300 1144 l 290 1144 l 178 1036 z m 288 403 l 288 0 l 301 0 l 301 403 l 536 972 l 521 972 l 294 422 l 69 972 l 56 972 z "},"ÿ":{"ha":592,"x_min":0,"x_max":0,"o":"m 256 1140 l 242 1140 l 242 1032 l 256 1032 z m 347 1140 l 333 1140 l 333 1032 l 347 1032 z m 288 403 l 288 0 l 301 0 l 301 403 l 536 972 l 521 972 l 294 422 l 69 972 l 56 972 z "},"ỳ":{"ha":592,"x_min":0,"x_max":0,"o":"m 231 1164 l 211 1164 l 314 1044 l 332 1044 z m 288 403 l 288 0 l 301 0 l 301 403 l 536 972 l 521 972 l 294 422 l 69 972 l 56 972 z "},"z":{"ha":553,"x_min":0,"x_max":0,"o":"m 489 0 l 489 14 l 71 14 l 496 956 l 496 972 l 76 972 l 76 958 l 481 958 l 56 15 l 56 0 z "},"ź":{"ha":553,"x_min":0,"x_max":0,"o":"m 392 1164 l 372 1164 l 271 1044 l 289 1044 z m 489 0 l 489 14 l 71 14 l 496 956 l 496 972 l 76 972 l 76 958 l 481 958 l 56 15 l 56 0 z "},"ž":{"ha":553,"x_min":0,"x_max":0,"o":"m 192 1150 l 172 1150 l 285 1042 l 294 1042 l 408 1150 l 388 1150 l 290 1056 z m 489 0 l 489 14 l 71 14 l 496 956 l 496 972 l 76 972 l 76 958 l 481 958 l 56 15 l 56 0 z "},"ż":{"ha":553,"x_min":0,"x_max":0,"o":"m 311 1151 l 297 1151 l 297 1043 l 311 1043 z m 489 0 l 489 14 l 71 14 l 496 956 l 496 972 l 76 972 l 76 958 l 481 958 l 56 15 l 56 0 z "},"ª":{"ha":375,"x_min":0,"x_max":0,"o":"m 203 979 b 76 829 108 979 76 915 l 76 819 l 90 819 l 90 829 b 203 965 90 907 117 965 b 306 829 288 965 306 903 l 306 750 b 56 596 201 749 56 729 l 56 592 b 176 461 56 514 96 461 b 306 565 243 461 285 506 l 306 468 l 319 468 l 319 829 b 203 979 319 911 296 979 z m 306 736 l 306 626 b 176 475 297 554 260 475 b 69 592 103 475 69 522 l 69 596 b 306 736 69 719 210 735 z m 319 357 l 58 357 l 58 343 l 319 343 z "},"º":{"ha":375,"x_min":0,"x_max":0,"o":"m 188 979 b 56 821 92 979 56 907 l 56 614 b 188 456 56 528 92 456 b 319 614 283 456 319 528 l 319 821 b 188 979 319 907 283 979 z m 188 965 b 306 821 275 965 306 899 l 306 614 b 188 469 306 536 275 469 b 69 614 100 469 69 536 l 69 821 b 188 965 69 899 100 965 z m 319 360 l 58 360 l 58 346 l 319 346 z "},"А":{"ha":628,"x_min":0,"x_max":0,"o":"m 129 236 l 497 236 l 558 0 l 572 0 l 321 974 l 301 974 l 56 0 l 69 0 z m 133 250 l 311 956 l 493 250 z "},"Б":{"ha":515,"x_min":0,"x_max":0,"o":"m 236 543 l 69 543 l 69 958 l 428 958 l 428 972 l 56 972 l 56 0 l 253 0 b 460 226 403 0 460 85 l 460 340 b 236 543 460 496 385 543 z m 253 14 l 69 14 l 69 529 l 236 529 b 446 340 378 529 446 489 l 446 226 b 253 14 446 93 394 14 z "},"В":{"ha":503,"x_min":0,"x_max":0,"o":"m 246 972 l 56 972 l 56 0 l 246 0 b 447 222 392 0 447 86 l 447 310 b 283 518 447 424 403 504 b 428 707 399 532 428 599 l 428 774 b 246 972 428 901 385 972 z m 204 525 l 69 525 l 69 958 l 246 958 b 414 774 376 958 414 894 l 414 707 b 204 525 414 557 350 525 z m 246 14 l 69 14 l 69 511 l 219 511 b 433 310 361 511 433 457 l 433 222 b 246 14 433 93 383 14 z "},"Г":{"ha":467,"x_min":0,"x_max":0,"o":"m 69 958 l 411 958 l 411 972 l 56 972 l 56 0 l 69 0 z "},"Д":{"ha":681,"x_min":0,"x_max":0,"o":"m 611 -137 l 625 -137 l 625 14 l 536 14 l 536 972 l 221 972 l 179 186 b 126 14 176 121 172 60 l 56 14 l 56 -137 l 69 -137 l 69 0 l 611 0 z m 193 185 l 235 958 l 522 958 l 522 14 l 146 14 b 193 185 188 61 190 122 z "},"Е":{"ha":475,"x_min":0,"x_max":0,"o":"m 365 500 l 69 500 l 69 958 l 419 958 l 419 972 l 56 972 l 56 0 l 419 0 l 419 14 l 69 14 l 69 486 l 365 486 z "},"Ё":{"ha":475,"x_min":0,"x_max":0,"o":"m 200 1150 l 186 1150 l 186 1042 l 200 1042 z m 292 1150 l 278 1150 l 278 1042 l 292 1042 z m 365 500 l 69 500 l 69 958 l 419 958 l 419 972 l 56 972 l 56 0 l 419 0 l 419 14 l 69 14 l 69 486 l 365 486 z "},"Ж":{"ha":879,"x_min":0,"x_max":0,"o":"m 526 517 l 808 0 l 824 0 l 535 529 l 807 972 l 790 972 l 446 411 l 446 972 l 432 972 l 432 411 l 88 972 l 72 972 l 344 529 l 56 0 l 71 0 l 353 517 l 432 388 l 432 0 l 446 0 l 446 386 z "},"З":{"ha":511,"x_min":0,"x_max":0,"o":"m 256 979 b 56 733 107 979 56 865 l 56 696 l 69 696 l 69 733 b 256 965 69 858 115 965 b 442 733 396 965 442 858 l 442 708 b 264 514 442 610 367 514 l 199 514 l 199 500 l 264 500 b 442 314 372 500 442 418 l 442 239 b 256 7 442 115 396 7 b 69 239 115 7 69 115 l 69 306 l 56 306 l 56 239 b 256 -7 56 107 107 -7 b 456 239 404 -7 456 107 l 456 314 b 308 507 456 407 406 488 b 456 708 400 533 456 617 l 456 733 b 256 979 456 865 404 979 z "},"И":{"ha":515,"x_min":0,"x_max":0,"o":"m 254 463 l 446 958 l 446 0 l 460 0 l 460 972 l 436 972 l 261 518 l 69 18 l 69 972 l 56 972 l 56 0 l 76 0 z "},"Й":{"ha":515,"x_min":0,"x_max":0,"o":"m 396 1138 l 381 1138 b 268 1053 378 1081 324 1053 b 156 1138 211 1053 157 1081 l 140 1138 b 268 1040 142 1074 204 1040 b 396 1138 332 1040 393 1075 z m 76 0 l 446 958 l 446 0 l 460 0 l 460 972 l 436 972 l 69 18 l 69 972 l 56 972 l 56 0 z "},"К":{"ha":554,"x_min":0,"x_max":0,"o":"m 147 496 l 482 0 l 499 0 l 156 508 l 469 972 l 453 972 l 69 407 l 69 972 l 56 972 l 56 0 l 69 0 l 69 382 z "},"Л":{"ha":600,"x_min":0,"x_max":0,"o":"m 235 958 l 531 958 l 531 0 l 544 0 l 544 972 l 221 972 l 190 235 b 56 13 188 135 189 13 l 56 -1 l 63 -1 b 204 233 200 3 199 126 z "},"М":{"ha":674,"x_min":0,"x_max":0,"o":"m 346 3 l 604 958 l 604 0 l 618 0 l 618 972 l 594 972 l 336 18 l 81 972 l 56 972 l 56 0 l 69 0 l 69 958 l 326 3 z "},"Н":{"ha":514,"x_min":0,"x_max":0,"o":"m 69 479 l 444 479 l 444 0 l 458 0 l 458 972 l 444 972 l 444 493 l 69 493 l 69 972 l 56 972 l 56 0 l 69 0 z "},"О":{"ha":518,"x_min":0,"x_max":0,"o":"m 56 733 l 56 239 b 258 -7 56 106 111 -7 b 463 239 407 -7 463 106 l 463 733 b 258 979 463 867 407 979 b 56 733 111 979 56 867 z m 69 239 l 69 733 b 258 965 69 858 118 965 b 449 733 399 965 449 858 l 449 239 b 258 7 449 113 399 7 b 69 239 118 7 69 113 z "},"П":{"ha":514,"x_min":0,"x_max":0,"o":"m 69 958 l 444 958 l 444 0 l 458 0 l 458 972 l 56 972 l 56 0 l 69 0 z "},"Р":{"ha":496,"x_min":0,"x_max":0,"o":"m 243 972 l 56 972 l 56 0 l 69 0 l 69 419 l 217 419 b 440 644 372 419 440 492 l 440 739 b 243 972 440 872 393 972 z m 217 433 l 69 433 l 69 958 l 243 958 b 426 739 385 958 426 865 l 426 644 b 217 433 426 499 365 433 z "},"С":{"ha":511,"x_min":0,"x_max":0,"o":"m 256 979 b 56 733 108 979 56 864 l 56 239 b 256 -7 56 108 108 -7 b 456 239 403 -7 456 108 l 456 342 l 442 342 l 442 239 b 256 7 442 115 394 7 b 69 239 117 7 69 115 l 69 733 b 256 965 69 857 117 965 b 442 733 394 965 442 857 l 442 660 l 456 660 l 456 733 b 256 979 456 864 403 979 z "},"Т":{"ha":564,"x_min":0,"x_max":0,"o":"m 275 0 l 289 0 l 289 958 l 508 958 l 508 972 l 56 972 l 56 958 l 275 958 z "},"У":{"ha":606,"x_min":0,"x_max":0,"o":"m 250 143 l 550 972 l 535 972 l 308 346 l 203 624 l 71 972 l 56 972 l 301 326 l 238 147 b 89 14 208 68 183 14 l 89 0 b 250 143 190 0 219 58 z "},"Ф":{"ha":751,"x_min":0,"x_max":0,"o":"m 474 863 l 382 863 l 382 972 l 368 972 l 368 863 l 276 863 b 56 615 114 863 56 768 l 56 350 b 276 103 56 197 114 103 l 368 103 l 368 0 l 382 0 l 382 103 l 474 103 b 696 350 636 103 696 197 l 696 615 b 474 863 696 768 636 863 z m 276 849 l 368 849 l 368 117 l 276 117 b 69 350 122 117 69 206 l 69 615 b 276 849 69 760 122 849 z m 474 117 l 382 117 l 382 849 l 474 849 b 682 615 629 849 682 760 l 682 350 b 474 117 682 206 628 117 z "},"Х":{"ha":619,"x_min":0,"x_max":0,"o":"m 310 490 l 549 0 l 564 0 l 318 506 l 547 972 l 532 972 l 310 521 l 88 972 l 72 972 l 303 506 l 56 0 l 72 0 z "},"Ч":{"ha":517,"x_min":0,"x_max":0,"o":"m 447 510 l 447 0 l 461 0 l 461 972 l 447 972 l 447 543 b 253 403 414 453 351 403 b 69 635 118 403 69 515 l 69 972 l 56 972 l 56 635 b 253 389 56 507 110 389 b 447 510 347 389 410 432 z "},"Ц":{"ha":632,"x_min":0,"x_max":0,"o":"m 560 -131 l 574 -131 l 574 14 l 485 14 l 485 972 l 471 972 l 471 14 l 96 14 l 96 972 l 83 972 l 83 0 l 560 0 z "},"Ш":{"ha":754,"x_min":0,"x_max":0,"o":"m 69 972 l 56 972 l 56 0 l 699 0 l 699 972 l 685 972 l 685 14 l 385 14 l 385 972 l 371 972 l 371 14 l 69 14 z "},"Щ":{"ha":843,"x_min":0,"x_max":0,"o":"m 774 -131 l 788 -131 l 788 14 l 697 14 l 697 972 l 683 972 l 685 14 l 383 14 l 383 972 l 369 972 l 369 14 l 69 14 l 69 972 l 56 972 l 56 0 l 774 0 z "},"Ь":{"ha":496,"x_min":0,"x_max":0,"o":"m 215 553 l 69 553 l 69 972 l 56 972 l 56 0 l 242 0 b 440 233 392 0 440 100 l 440 328 b 215 553 440 481 372 553 z m 242 14 l 69 14 l 69 539 l 215 539 b 426 328 364 539 426 474 l 426 233 b 242 14 426 107 383 14 z "},"Ъ":{"ha":640,"x_min":0,"x_max":0,"o":"m 361 553 l 214 553 l 214 972 l 56 972 l 56 958 l 200 958 l 200 0 l 388 0 b 585 233 536 0 585 100 l 585 328 b 361 553 585 481 517 553 z m 388 14 l 214 14 l 214 539 l 361 539 b 571 328 508 539 571 474 l 571 233 b 388 14 571 107 529 14 z "},"Ы":{"ha":604,"x_min":0,"x_max":0,"o":"m 215 553 l 69 553 l 69 972 l 56 972 l 56 0 l 242 0 b 440 233 392 0 440 100 l 440 328 b 215 553 440 481 372 553 z m 549 972 l 535 972 l 535 0 l 549 0 z m 242 14 l 69 14 l 69 539 l 215 539 b 426 328 364 539 426 474 l 426 233 b 242 14 426 107 383 14 z "},"Э":{"ha":510,"x_min":0,"x_max":0,"o":"m 254 979 b 56 733 108 979 56 864 l 56 682 l 69 682 l 69 733 b 254 965 69 857 115 965 b 440 733 394 965 440 857 l 440 510 l 210 510 l 210 496 l 440 496 l 440 239 b 254 7 440 115 394 7 b 69 239 115 7 69 115 l 69 324 l 56 324 l 56 239 b 254 -7 56 108 108 -7 b 454 239 401 -7 454 108 l 454 733 b 254 979 454 864 401 979 z "},"Ю":{"ha":731,"x_min":0,"x_max":0,"o":"m 471 979 b 268 733 322 979 268 867 l 268 493 l 69 493 l 69 972 l 56 972 l 56 0 l 69 0 l 69 479 l 268 479 l 268 239 b 471 -7 268 106 322 -7 b 675 239 619 -7 675 106 l 675 733 b 471 979 675 867 619 979 z m 471 965 b 661 733 611 965 661 860 l 661 239 b 471 7 661 114 611 7 b 282 239 331 7 282 114 l 282 733 b 471 965 282 860 331 965 z "},"Я":{"ha":524,"x_min":0,"x_max":0,"o":"m 326 456 l 454 456 l 454 0 l 468 0 l 468 972 l 281 972 b 83 754 138 972 83 886 l 83 667 b 246 461 83 544 133 478 b 83 268 133 446 83 376 l 83 115 b 56 0 83 79 79 29 l 72 0 b 97 115 93 32 97 78 l 97 268 b 326 456 97 418 192 456 z m 281 958 l 454 958 l 454 469 l 326 469 b 97 667 182 469 97 506 l 97 754 b 281 958 97 879 146 958 z "},"а":{"ha":628,"x_min":0,"x_max":0,"o":"m 129 236 l 497 236 l 558 0 l 572 0 l 321 974 l 301 974 l 56 0 l 69 0 z m 133 250 l 311 956 l 493 250 z "},"б":{"ha":515,"x_min":0,"x_max":0,"o":"m 236 543 l 69 543 l 69 958 l 428 958 l 428 972 l 56 972 l 56 0 l 253 0 b 460 226 403 0 460 85 l 460 340 b 236 543 460 496 385 543 z m 253 14 l 69 14 l 69 529 l 236 529 b 446 340 378 529 446 489 l 446 226 b 253 14 446 93 394 14 z "},"в":{"ha":503,"x_min":0,"x_max":0,"o":"m 246 972 l 56 972 l 56 0 l 246 0 b 447 222 392 0 447 86 l 447 310 b 283 518 447 424 403 504 b 428 707 399 532 428 599 l 428 774 b 246 972 428 901 385 972 z m 204 525 l 69 525 l 69 958 l 246 958 b 414 774 376 958 414 894 l 414 707 b 204 525 414 557 350 525 z m 246 14 l 69 14 l 69 511 l 219 511 b 433 310 361 511 433 457 l 433 222 b 246 14 433 93 383 14 z "},"г":{"ha":467,"x_min":0,"x_max":0,"o":"m 69 958 l 411 958 l 411 972 l 56 972 l 56 0 l 69 0 z "},"д":{"ha":681,"x_min":0,"x_max":0,"o":"m 611 -137 l 625 -137 l 625 14 l 536 14 l 536 972 l 221 972 l 179 186 b 126 14 176 121 172 60 l 56 14 l 56 -137 l 69 -137 l 69 0 l 611 0 z m 193 185 l 235 958 l 522 958 l 522 14 l 146 14 b 193 185 188 61 190 122 z "},"е":{"ha":475,"x_min":0,"x_max":0,"o":"m 365 500 l 69 500 l 69 958 l 419 958 l 419 972 l 56 972 l 56 0 l 419 0 l 419 14 l 69 14 l 69 486 l 365 486 z "},"ё":{"ha":475,"x_min":0,"x_max":0,"o":"m 200 1150 l 186 1150 l 186 1042 l 200 1042 z m 292 1150 l 278 1150 l 278 1042 l 292 1042 z m 365 500 l 69 500 l 69 958 l 419 958 l 419 972 l 56 972 l 56 0 l 419 0 l 419 14 l 69 14 l 69 486 l 365 486 z "},"ж":{"ha":879,"x_min":0,"x_max":0,"o":"m 526 517 l 808 0 l 824 0 l 535 529 l 807 972 l 790 972 l 446 411 l 446 972 l 432 972 l 432 411 l 88 972 l 72 972 l 344 529 l 56 0 l 71 0 l 353 517 l 432 388 l 432 0 l 446 0 l 446 386 z "},"з":{"ha":511,"x_min":0,"x_max":0,"o":"m 256 979 b 56 733 107 979 56 865 l 56 696 l 69 696 l 69 733 b 256 965 69 858 115 965 b 442 733 396 965 442 858 l 442 708 b 264 514 442 610 367 514 l 199 514 l 199 500 l 264 500 b 442 314 372 500 442 418 l 442 239 b 256 7 442 115 396 7 b 69 239 115 7 69 115 l 69 306 l 56 306 l 56 239 b 256 -7 56 107 107 -7 b 456 239 404 -7 456 107 l 456 314 b 308 507 456 407 406 488 b 456 708 400 533 456 617 l 456 733 b 256 979 456 865 404 979 z "},"и":{"ha":515,"x_min":0,"x_max":0,"o":"m 76 0 l 446 958 l 446 0 l 460 0 l 460 972 l 436 972 l 215 399 l 69 18 l 69 972 l 56 972 l 56 0 z "},"й":{"ha":515,"x_min":0,"x_max":0,"o":"m 396 1132 l 381 1132 b 268 1047 378 1075 324 1047 b 156 1132 211 1047 157 1075 l 140 1132 b 268 1035 142 1068 204 1035 b 396 1132 332 1035 393 1069 z m 275 514 l 446 958 l 446 0 l 460 0 l 460 972 l 436 972 l 231 439 l 69 18 l 69 972 l 56 972 l 56 0 l 76 0 z "},"к":{"ha":554,"x_min":0,"x_max":0,"o":"m 147 496 l 482 0 l 499 0 l 156 508 l 469 972 l 453 972 l 69 407 l 69 972 l 56 972 l 56 0 l 69 0 l 69 382 z "},"л":{"ha":600,"x_min":0,"x_max":0,"o":"m 235 958 l 531 958 l 531 0 l 544 0 l 544 972 l 221 972 l 190 235 b 56 13 188 135 189 13 l 56 -1 l 63 -1 b 204 233 200 3 199 126 z "},"м":{"ha":674,"x_min":0,"x_max":0,"o":"m 346 3 l 604 958 l 604 0 l 618 0 l 618 972 l 594 972 l 336 18 l 81 972 l 56 972 l 56 0 l 69 0 l 69 958 l 326 3 z "},"н":{"ha":514,"x_min":0,"x_max":0,"o":"m 69 479 l 444 479 l 444 0 l 458 0 l 458 972 l 444 972 l 444 493 l 69 493 l 69 972 l 56 972 l 56 0 l 69 0 z "},"о":{"ha":518,"x_min":0,"x_max":0,"o":"m 56 733 l 56 239 b 258 -7 56 106 111 -7 b 463 239 407 -7 463 106 l 463 733 b 258 979 463 867 407 979 b 56 733 111 979 56 867 z m 69 239 l 69 733 b 258 965 69 858 118 965 b 449 733 399 965 449 858 l 449 239 b 258 7 449 113 399 7 b 69 239 118 7 69 113 z "},"п":{"ha":514,"x_min":0,"x_max":0,"o":"m 69 958 l 444 958 l 444 0 l 458 0 l 458 972 l 56 972 l 56 0 l 69 0 z "},"р":{"ha":496,"x_min":0,"x_max":0,"o":"m 243 972 l 56 972 l 56 0 l 69 0 l 69 419 l 217 419 b 440 644 372 419 440 492 l 440 739 b 243 972 440 872 393 972 z m 217 433 l 69 433 l 69 958 l 243 958 b 426 739 385 958 426 865 l 426 644 b 217 433 426 499 365 433 z "},"с":{"ha":511,"x_min":0,"x_max":0,"o":"m 256 979 b 56 733 108 979 56 864 l 56 239 b 256 -7 56 108 108 -7 b 456 239 403 -7 456 108 l 456 342 l 442 342 l 442 239 b 256 7 442 115 394 7 b 69 239 117 7 69 115 l 69 733 b 256 965 69 857 117 965 b 442 733 394 965 442 857 l 442 660 l 456 660 l 456 733 b 256 979 456 864 403 979 z "},"т":{"ha":564,"x_min":0,"x_max":0,"o":"m 275 0 l 289 0 l 289 958 l 508 958 l 508 972 l 56 972 l 56 958 l 275 958 z "},"у":{"ha":606,"x_min":0,"x_max":0,"o":"m 250 143 l 550 972 l 535 972 l 308 346 l 203 624 l 71 972 l 56 972 l 301 326 l 238 147 b 89 14 208 68 183 14 l 89 0 b 250 143 190 0 219 58 z "},"ф":{"ha":751,"x_min":0,"x_max":0,"o":"m 474 863 l 382 863 l 382 972 l 368 972 l 368 863 l 276 863 b 56 615 114 863 56 768 l 56 350 b 276 103 56 197 114 103 l 368 103 l 368 0 l 382 0 l 382 103 l 474 103 b 696 350 636 103 696 197 l 696 615 b 474 863 696 768 636 863 z m 276 849 l 368 849 l 368 117 l 276 117 b 69 350 122 117 69 206 l 69 615 b 276 849 69 760 122 849 z m 474 117 l 382 117 l 382 849 l 474 849 b 682 615 629 849 682 760 l 682 350 b 474 117 682 206 628 117 z "},"х":{"ha":619,"x_min":0,"x_max":0,"o":"m 310 490 l 549 0 l 564 0 l 318 506 l 547 972 l 532 972 l 310 521 l 88 972 l 72 972 l 303 506 l 56 0 l 72 0 z "},"ч":{"ha":517,"x_min":0,"x_max":0,"o":"m 447 510 l 447 0 l 461 0 l 461 972 l 447 972 l 447 543 b 253 403 414 453 351 403 b 69 635 118 403 69 515 l 69 972 l 56 972 l 56 635 b 253 389 56 507 110 389 b 447 510 347 389 410 432 z "},"ц":{"ha":632,"x_min":0,"x_max":0,"o":"m 560 -131 l 574 -131 l 574 14 l 485 14 l 485 972 l 471 972 l 471 14 l 96 14 l 96 972 l 83 972 l 83 0 l 560 0 z "},"ш":{"ha":754,"x_min":0,"x_max":0,"o":"m 69 972 l 56 972 l 56 0 l 699 0 l 699 972 l 685 972 l 685 14 l 385 14 l 385 972 l 371 972 l 371 14 l 69 14 z "},"щ":{"ha":843,"x_min":0,"x_max":0,"o":"m 774 -131 l 788 -131 l 788 14 l 697 14 l 697 972 l 683 972 l 685 14 l 383 14 l 383 972 l 369 972 l 369 14 l 69 14 l 69 972 l 56 972 l 56 0 l 774 0 z "},"ь":{"ha":496,"x_min":0,"x_max":0,"o":"m 215 553 l 69 553 l 69 972 l 56 972 l 56 0 l 242 0 b 440 233 392 0 440 100 l 440 328 b 215 553 440 481 372 553 z m 242 14 l 69 14 l 69 539 l 215 539 b 426 328 364 539 426 474 l 426 233 b 242 14 426 107 383 14 z "},"ъ":{"ha":640,"x_min":0,"x_max":0,"o":"m 361 553 l 214 553 l 214 972 l 56 972 l 56 958 l 200 958 l 200 0 l 388 0 b 585 233 536 0 585 100 l 585 328 b 361 553 585 481 517 553 z m 388 14 l 214 14 l 214 539 l 361 539 b 571 328 508 539 571 474 l 571 233 b 388 14 571 107 529 14 z "},"ы":{"ha":604,"x_min":0,"x_max":0,"o":"m 215 553 l 69 553 l 69 972 l 56 972 l 56 0 l 242 0 b 440 233 392 0 440 100 l 440 328 b 215 553 440 481 372 553 z m 549 972 l 535 972 l 535 0 l 549 0 z m 242 14 l 69 14 l 69 539 l 215 539 b 426 328 364 539 426 474 l 426 233 b 242 14 426 107 383 14 z "},"э":{"ha":510,"x_min":0,"x_max":0,"o":"m 254 979 b 56 733 108 979 56 864 l 56 682 l 69 682 l 69 733 b 254 965 69 857 115 965 b 440 733 394 965 440 857 l 440 510 l 210 510 l 210 496 l 440 496 l 440 239 b 254 7 440 115 394 7 b 69 239 115 7 69 115 l 69 324 l 56 324 l 56 239 b 254 -7 56 108 108 -7 b 454 239 401 -7 454 108 l 454 733 b 254 979 454 864 401 979 z "},"ю":{"ha":731,"x_min":0,"x_max":0,"o":"m 471 979 b 268 733 322 979 268 867 l 268 493 l 69 493 l 69 972 l 56 972 l 56 0 l 69 0 l 69 479 l 268 479 l 268 239 b 471 -7 268 106 322 -7 b 675 239 619 -7 675 106 l 675 733 b 471 979 675 867 619 979 z m 471 965 b 661 733 611 965 661 860 l 661 239 b 471 7 661 114 611 7 b 282 239 331 7 282 114 l 282 733 b 471 965 282 860 331 965 z "},"я":{"ha":524,"x_min":0,"x_max":0,"o":"m 326 456 l 454 456 l 454 0 l 468 0 l 468 972 l 281 972 b 83 754 138 972 83 886 l 83 667 b 246 461 83 544 133 478 b 83 268 133 446 83 376 l 83 115 b 56 0 83 79 79 29 l 72 0 b 97 115 93 32 97 78 l 97 268 b 326 456 97 418 192 456 z m 281 958 l 454 958 l 454 469 l 326 469 b 97 667 182 469 97 506 l 97 754 b 281 958 97 879 146 958 z "},"₀":{"ha":375,"x_min":0,"x_max":0,"o":"m 56 375 l 56 61 b 188 -97 56 -25 92 -97 b 319 61 283 -97 319 -25 l 319 375 b 188 533 319 461 283 533 b 56 375 92 533 56 461 z m 69 61 l 69 375 b 188 519 69 453 100 519 b 306 375 275 519 306 453 l 306 61 b 188 -83 306 -17 275 -83 b 69 61 100 -83 69 -17 z "},"₁":{"ha":229,"x_min":0,"x_max":0,"o":"m 160 499 l 160 -90 l 174 -90 l 174 526 l 156 526 b 56 439 140 479 106 444 l 57 425 b 160 499 103 431 139 458 z "},"₂":{"ha":369,"x_min":0,"x_max":0,"o":"m 185 533 b 56 369 88 533 56 456 l 56 340 l 69 340 l 69 369 b 185 519 69 447 96 519 b 300 372 275 519 300 450 b 56 -83 300 208 56 154 l 56 -90 l 308 -90 l 308 -76 l 69 -76 l 69 -74 b 314 372 76 150 314 203 b 185 533 314 458 283 533 z "},"₃":{"ha":369,"x_min":0,"x_max":0,"o":"m 185 533 b 56 375 89 533 56 460 l 56 358 l 69 358 l 69 375 b 185 519 69 451 97 519 b 300 375 272 519 300 451 l 300 360 b 194 238 301 300 258 238 l 149 238 l 149 224 l 194 224 b 300 108 261 224 300 171 l 300 61 b 185 -83 300 -17 272 -83 b 69 61 97 -83 69 -17 l 69 88 l 56 88 l 56 61 b 185 -97 56 -24 89 -97 b 314 61 279 -97 314 -24 l 314 108 b 231 231 314 165 285 215 b 314 360 285 250 314 304 l 314 375 b 185 533 314 460 279 533 z "},"₄":{"ha":403,"x_min":0,"x_max":0,"o":"m 294 49 l 347 49 l 347 63 l 294 63 l 294 519 l 276 519 l 56 63 l 56 49 l 281 49 l 281 -97 l 294 -97 z m 71 63 l 281 496 l 281 63 z "},"₅":{"ha":369,"x_min":0,"x_max":0,"o":"m 69 65 l 69 89 l 56 89 l 56 65 b 185 -93 56 -19 90 -93 b 314 65 279 -93 314 -19 l 314 153 b 185 311 314 238 279 311 b 81 256 142 311 104 293 l 93 519 l 300 519 l 300 533 l 81 533 l 65 218 l 79 218 l 79 224 b 185 297 90 268 140 297 b 300 153 272 297 300 229 l 300 65 b 185 -79 300 -11 272 -79 b 69 65 99 -79 69 -11 z "},"₆":{"ha":375,"x_min":0,"x_max":0,"o":"m 188 533 b 56 375 92 533 56 461 l 56 61 b 188 -97 56 -25 92 -97 b 319 61 283 -97 319 -25 l 319 115 b 188 275 319 201 283 275 b 69 197 132 275 90 249 l 69 375 b 188 519 69 453 100 519 b 303 378 275 519 303 456 l 303 375 l 317 375 l 317 378 b 188 533 317 464 283 533 z m 188 261 b 306 115 275 261 306 194 l 306 61 b 188 -83 306 -17 275 -83 b 69 61 100 -83 69 -17 l 69 115 b 188 261 69 194 100 261 z "},"₇":{"ha":368,"x_min":0,"x_max":0,"o":"m 297 519 l 107 -83 l 122 -83 l 313 521 l 313 533 l 56 533 l 56 519 z "},"₈":{"ha":383,"x_min":0,"x_max":0,"o":"m 192 533 b 56 385 100 533 56 471 l 56 364 b 139 231 56 303 78 250 b 56 97 76 213 56 158 l 56 56 b 192 -97 56 -32 97 -97 b 328 56 286 -97 328 -32 l 328 97 b 244 231 328 158 307 213 b 328 364 306 250 328 303 l 328 385 b 192 533 328 471 283 533 z m 192 519 b 314 385 275 519 314 464 l 314 364 b 192 238 314 283 274 238 b 69 364 108 238 69 283 l 69 385 b 192 519 69 464 108 519 z m 192 224 b 314 97 276 224 314 179 l 314 56 b 192 -83 314 -25 278 -83 b 69 56 106 -83 69 -25 l 69 97 b 192 224 69 179 107 224 z "},"₉":{"ha":375,"x_min":0,"x_max":0,"o":"m 188 533 b 56 375 92 533 56 461 l 56 319 b 188 161 56 233 92 161 b 306 238 243 161 285 186 l 306 61 b 188 -83 306 -17 275 -83 b 69 58 100 -83 69 -19 l 69 63 l 56 63 l 56 58 b 188 -97 56 -28 93 -97 b 319 61 283 -97 319 -25 l 319 375 b 188 533 319 461 283 533 z m 188 519 b 306 375 275 519 306 453 l 306 319 b 188 175 306 242 275 175 b 69 319 100 175 69 242 l 69 375 b 188 519 69 453 100 519 z "},"⁰":{"ha":375,"x_min":0,"x_max":0,"o":"m 56 953 l 56 639 b 188 481 56 553 92 481 b 319 639 283 481 319 553 l 319 953 b 188 1111 319 1039 283 1111 b 56 953 92 1111 56 1039 z m 69 639 l 69 953 b 188 1097 69 1031 100 1097 b 306 953 275 1097 306 1031 l 306 639 b 188 494 306 561 275 494 b 69 639 100 494 69 561 z "},"¹":{"ha":229,"x_min":0,"x_max":0,"o":"m 56 1017 l 57 1003 b 160 1076 103 1008 139 1036 l 160 488 l 174 488 l 174 1104 l 156 1104 b 56 1017 140 1057 106 1022 z "},"²":{"ha":369,"x_min":0,"x_max":0,"o":"m 185 1111 b 56 947 88 1111 56 1033 l 56 918 l 69 918 l 69 947 b 185 1097 69 1025 96 1097 b 300 950 275 1097 300 1028 b 56 494 300 786 56 732 l 56 488 l 308 488 l 308 501 l 69 501 l 69 504 b 314 950 76 728 314 781 b 185 1111 314 1036 283 1111 z "},"³":{"ha":369,"x_min":0,"x_max":0,"o":"m 185 1111 b 56 953 89 1111 56 1038 l 56 936 l 69 936 l 69 953 b 185 1097 69 1029 97 1097 b 300 953 272 1097 300 1029 l 300 938 b 194 815 301 878 258 815 l 149 815 l 149 801 l 194 801 b 300 686 261 801 300 749 l 300 639 b 185 494 300 561 272 494 b 69 639 97 494 69 561 l 69 665 l 56 665 l 56 639 b 185 481 56 554 89 481 b 314 639 279 481 314 554 l 314 686 b 231 810 314 743 288 792 b 314 938 285 829 314 882 l 314 953 b 185 1111 314 1038 279 1111 z "},"⁴":{"ha":403,"x_min":0,"x_max":0,"o":"m 294 633 l 347 633 l 347 647 l 294 647 l 294 1104 l 276 1104 l 56 647 l 56 633 l 281 633 l 281 488 l 294 488 z m 71 647 l 281 1081 l 281 647 z "},"⁵":{"ha":369,"x_min":0,"x_max":0,"o":"m 69 636 l 69 660 l 56 660 l 56 636 b 185 478 56 551 90 478 b 314 636 279 478 314 551 l 314 724 b 185 882 314 808 279 882 b 81 826 142 882 104 864 l 93 1090 l 300 1090 l 300 1104 l 81 1104 l 65 789 l 79 789 l 79 794 b 185 868 90 839 140 868 b 300 724 272 868 300 800 l 300 636 b 185 492 300 560 272 492 b 69 636 99 492 69 560 z "},"⁶":{"ha":375,"x_min":0,"x_max":0,"o":"m 188 1111 b 56 953 92 1111 56 1039 l 56 639 b 188 481 56 553 92 481 b 319 639 283 481 319 553 l 319 693 b 188 853 319 779 283 853 b 69 775 132 853 90 826 l 69 953 b 188 1097 69 1031 100 1097 b 303 956 275 1097 303 1033 l 303 953 l 317 953 l 317 956 b 188 1111 317 1042 283 1111 z m 188 839 b 306 693 275 839 306 772 l 306 639 b 188 494 306 561 275 494 b 69 639 100 494 69 561 l 69 693 b 188 839 69 772 100 839 z "},"⁷":{"ha":368,"x_min":0,"x_max":0,"o":"m 297 1090 l 107 488 l 122 488 l 313 1092 l 313 1104 l 56 1104 l 56 1090 z "},"⁸":{"ha":383,"x_min":0,"x_max":0,"o":"m 192 1111 b 56 963 100 1111 56 1049 l 56 942 b 139 808 56 881 78 828 b 56 675 76 790 56 736 l 56 633 b 192 481 56 546 97 481 b 328 633 286 481 328 546 l 328 675 b 244 808 328 736 307 790 b 328 942 306 828 328 881 l 328 963 b 192 1111 328 1049 283 1111 z m 192 1097 b 314 963 275 1097 314 1042 l 314 942 b 192 815 314 861 274 815 b 69 942 108 815 69 861 l 69 963 b 192 1097 69 1042 108 1097 z m 192 801 b 314 675 276 801 314 757 l 314 633 b 192 494 314 553 278 494 b 69 633 106 494 69 553 l 69 675 b 192 801 69 757 107 801 z "},"⁹":{"ha":375,"x_min":0,"x_max":0,"o":"m 188 1111 b 56 953 92 1111 56 1039 l 56 897 b 188 739 56 811 92 739 b 306 815 243 739 285 764 l 306 639 b 188 494 306 561 275 494 b 69 636 100 494 69 558 l 69 640 l 56 640 l 56 636 b 188 481 56 550 93 481 b 319 639 283 481 319 553 l 319 953 b 188 1111 319 1039 283 1111 z m 188 1097 b 306 953 275 1097 306 1031 l 306 897 b 188 753 306 819 275 753 b 69 897 100 753 69 819 l 69 953 b 188 1097 69 1031 100 1097 z "},"⁄":{"ha":508,"x_min":0,"x_max":0,"o":"m 453 972 l 439 972 l 56 0 l 69 0 z "},"½":{"ha":753,"x_min":0,"x_max":0,"o":"m 160 944 l 160 356 l 174 356 l 174 972 l 156 972 b 56 885 140 925 106 890 l 57 871 b 160 944 103 876 139 904 z m 517 972 l 503 972 l 119 0 l 133 0 z m 568 624 b 439 460 471 624 439 546 l 439 431 l 453 431 l 453 460 b 568 610 453 538 479 610 b 683 463 658 610 683 540 b 439 7 683 299 439 244 l 439 0 l 692 0 l 692 14 l 453 14 l 453 17 b 697 463 460 240 697 293 b 568 624 697 549 667 624 z "},"⅓":{"ha":739,"x_min":0,"x_max":0,"o":"m 160 944 l 160 356 l 174 356 l 174 972 l 156 972 b 56 885 140 925 106 890 l 57 871 b 160 944 103 876 139 904 z m 517 972 l 503 972 l 119 0 l 133 0 z m 554 624 b 425 465 458 624 425 550 l 425 449 l 439 449 l 439 465 b 554 610 439 542 467 610 b 669 465 642 610 669 542 l 669 450 b 564 328 671 390 628 328 l 518 328 l 518 314 l 564 314 b 669 199 631 314 669 261 l 669 151 b 554 7 669 74 642 7 b 439 151 467 7 439 74 l 439 178 l 425 178 l 425 151 b 554 -7 425 67 458 -7 b 683 151 649 -7 683 67 l 683 199 b 600 322 683 256 657 304 b 683 450 654 342 683 394 l 683 465 b 554 624 683 550 649 624 z "},"⅔":{"ha":833,"x_min":0,"x_max":0,"o":"m 185 979 b 56 815 88 979 56 901 l 56 786 l 69 786 l 69 815 b 185 965 69 893 96 965 b 300 818 275 965 300 896 b 56 363 300 654 56 600 l 56 356 l 308 356 l 308 369 l 69 369 l 69 372 b 314 818 76 596 314 649 b 185 979 314 904 283 979 z m 228 0 l 611 972 l 597 972 l 214 0 z m 649 624 b 519 465 553 624 519 550 l 519 449 l 533 449 l 533 465 b 649 610 533 542 561 610 b 764 465 736 610 764 542 l 764 450 b 658 328 765 390 722 328 l 613 328 l 613 314 l 658 314 b 764 199 725 314 764 261 l 764 151 b 649 7 764 74 736 7 b 533 151 561 7 533 74 l 533 178 l 519 178 l 519 151 b 649 -7 519 67 553 -7 b 778 151 743 -7 778 67 l 778 199 b 694 322 778 256 751 304 b 778 450 749 342 778 394 l 778 465 b 649 624 778 550 743 624 z "},"¼":{"ha":656,"x_min":0,"x_max":0,"o":"m 160 944 l 160 356 l 174 356 l 174 972 l 156 972 b 56 885 140 925 106 890 l 57 871 b 160 944 103 876 139 904 z m 133 0 l 517 972 l 503 972 l 119 0 z m 547 0 l 547 146 l 600 146 l 600 160 l 547 160 l 547 617 l 529 617 l 308 160 l 308 146 l 533 146 l 533 0 z m 533 160 l 325 160 l 533 593 z "},"¾":{"ha":764,"x_min":0,"x_max":0,"o":"m 185 979 b 56 821 89 979 56 906 l 56 804 l 69 804 l 69 821 b 185 965 69 897 97 965 b 300 821 272 965 300 897 l 300 806 b 194 683 301 746 258 683 l 149 683 l 149 669 l 194 669 b 300 554 261 669 300 617 l 300 507 b 185 363 300 429 272 363 b 69 507 97 363 69 429 l 69 533 l 56 533 l 56 507 b 185 349 56 422 89 349 b 314 507 279 349 314 422 l 314 554 b 231 678 314 611 288 660 b 314 806 285 697 314 750 l 314 821 b 185 979 314 906 279 979 z m 611 972 l 228 0 l 242 0 l 625 972 z m 642 146 l 642 0 l 656 0 l 656 146 l 708 146 l 708 160 l 656 160 l 656 617 l 638 617 l 417 160 l 417 146 z m 433 160 l 642 593 l 642 160 z "},"⅛":{"ha":760,"x_min":0,"x_max":0,"o":"m 160 944 l 160 356 l 174 356 l 174 972 l 156 972 b 56 885 140 925 106 890 l 57 871 b 160 944 103 876 139 904 z m 119 0 l 133 0 l 517 972 l 503 972 z m 568 624 b 432 475 476 624 432 561 l 432 454 b 515 321 432 393 454 340 b 432 188 453 303 432 249 l 432 146 b 568 -7 432 58 474 -7 b 704 146 663 -7 704 58 l 704 188 b 621 321 704 249 683 303 b 704 454 682 340 704 393 l 704 475 b 568 624 704 561 660 624 z m 568 610 b 690 475 651 610 690 554 l 690 454 b 568 328 690 374 650 328 b 446 454 485 328 446 374 l 446 475 b 568 610 446 554 485 610 z m 568 314 b 690 188 653 314 690 269 l 690 146 b 568 7 690 65 654 7 b 446 146 482 7 446 65 l 446 188 b 568 314 446 269 483 314 z "},"⅜":{"ha":868,"x_min":0,"x_max":0,"o":"m 185 979 b 56 821 89 979 56 906 l 56 804 l 69 804 l 69 821 b 185 965 69 897 97 965 b 300 821 272 965 300 897 l 300 806 b 194 683 301 746 258 683 l 149 683 l 149 669 l 194 669 b 300 554 261 669 300 617 l 300 507 b 185 363 300 429 272 363 b 69 507 97 363 69 429 l 69 533 l 56 533 l 56 507 b 185 349 56 422 89 349 b 314 507 279 349 314 422 l 314 554 b 231 678 314 611 288 660 b 314 806 285 697 314 750 l 314 821 b 185 979 314 906 279 979 z m 625 972 l 611 972 l 228 0 l 242 0 z m 676 624 b 540 475 585 624 540 561 l 540 454 b 624 321 540 393 563 340 b 540 188 561 303 540 249 l 540 146 b 676 -7 540 58 582 -7 b 813 146 771 -7 813 58 l 813 188 b 729 321 813 249 792 303 b 813 454 790 340 813 393 l 813 475 b 676 624 813 561 768 624 z m 676 610 b 799 475 760 610 799 554 l 799 454 b 676 328 799 374 758 328 b 554 454 593 328 554 374 l 554 475 b 676 610 554 554 593 610 z m 676 314 b 799 188 761 314 799 269 l 799 146 b 676 7 799 65 763 7 b 554 146 590 7 554 65 l 554 188 b 676 314 554 269 592 314 z "},"⅝":{"ha":865,"x_min":0,"x_max":0,"o":"m 81 694 l 93 958 l 300 958 l 300 972 l 81 972 l 65 657 l 79 657 l 79 663 b 185 736 90 707 140 736 b 300 592 272 736 300 668 l 300 504 b 185 360 300 428 272 360 b 69 504 99 360 69 428 l 69 528 l 56 528 l 56 504 b 185 346 56 419 90 346 b 314 504 279 346 314 419 l 314 592 b 185 750 314 676 279 750 b 81 694 142 750 104 732 z m 608 972 l 225 0 l 239 0 l 622 972 z m 674 624 b 538 475 582 624 538 561 l 538 454 b 621 321 538 393 560 340 b 538 188 558 303 538 249 l 538 146 b 674 -7 538 58 579 -7 b 810 146 768 -7 810 58 l 810 188 b 726 321 810 249 789 303 b 810 454 788 340 810 393 l 810 475 b 674 624 810 561 765 624 z m 674 610 b 796 475 757 610 796 554 l 796 454 b 674 328 796 374 756 328 b 551 454 590 328 551 374 l 551 475 b 674 610 551 554 590 610 z m 674 314 b 796 188 758 314 796 269 l 796 146 b 674 7 796 65 760 7 b 551 146 588 7 551 65 l 551 188 b 674 314 551 269 589 314 z "},"⅞":{"ha":728,"x_min":0,"x_max":0,"o":"m 297 958 l 107 356 l 122 356 l 313 960 l 313 972 l 56 972 l 56 958 z m 101 0 l 485 972 l 471 972 l 88 0 z m 536 624 b 400 475 444 624 400 561 l 400 454 b 483 321 400 393 422 340 b 400 188 421 303 400 249 l 400 146 b 536 -7 400 58 442 -7 b 672 146 631 -7 672 58 l 672 188 b 589 321 672 249 651 303 b 672 454 650 340 672 393 l 672 475 b 536 624 672 561 628 624 z m 536 610 b 658 475 619 610 658 554 l 658 454 b 536 328 658 374 618 328 b 414 454 453 328 414 374 l 414 475 b 536 610 414 554 453 610 z m 536 314 b 658 188 621 314 658 269 l 658 146 b 536 7 658 65 622 7 b 414 146 450 7 414 65 l 414 188 b 536 314 414 269 451 314 z "},".":{"ha":125,"x_min":0,"x_max":0,"o":"m 69 108 l 56 108 l 56 0 l 69 0 z "},",":{"ha":146,"x_min":0,"x_max":0,"o":"m 78 0 l 56 -86 l 65 -86 l 90 0 l 90 108 l 76 108 l 76 0 z "},":":{"ha":125,"x_min":0,"x_max":0,"o":"m 69 638 l 56 638 l 56 529 l 69 529 z m 69 108 l 56 108 l 56 0 l 69 0 z "},";":{"ha":146,"x_min":0,"x_max":0,"o":"m 90 638 l 76 638 l 76 529 l 90 529 z m 78 0 l 56 -86 l 65 -86 l 90 0 l 90 108 l 76 108 l 76 0 z "},"…":{"ha":242,"x_min":0,"x_max":0,"o":"m 69 108 l 56 108 l 56 0 l 69 0 z m 126 108 l 113 108 l 113 0 l 126 0 z m 186 108 l 172 108 l 172 0 l 186 0 z "},"!":{"ha":125,"x_min":0,"x_max":0,"o":"m 56 408 l 57 215 l 68 215 l 69 408 l 69 974 l 56 974 z m 69 107 l 56 107 l 56 0 l 69 0 z "},"¡":{"ha":125,"x_min":0,"x_max":0,"o":"m 69 974 l 56 974 l 56 867 l 69 867 z m 56 479 l 56 0 l 69 0 l 69 479 l 68 758 l 57 758 z "},"?":{"ha":506,"x_min":0,"x_max":0,"o":"m 253 979 b 56 726 103 979 56 857 l 56 681 l 69 681 l 69 726 b 253 967 69 849 111 967 b 436 729 397 967 436 854 b 221 268 436 539 222 479 b 228 218 221 251 224 235 l 242 218 b 235 268 238 233 235 253 b 450 729 235 472 450 532 b 253 979 450 863 406 979 z m 240 107 l 226 107 l 226 0 l 240 0 z "},"¿":{"ha":506,"x_min":0,"x_max":0,"o":"m 279 972 l 265 972 l 265 865 l 279 865 z m 278 754 l 264 754 b 271 704 268 739 271 719 b 56 243 271 500 56 440 b 253 -7 56 110 100 -7 b 450 246 403 -7 450 115 l 450 292 l 436 292 l 436 246 b 253 6 436 124 394 6 b 69 243 108 6 69 118 b 285 704 69 433 283 493 b 278 754 285 721 282 738 z "},"·":{"ha":125,"x_min":0,"x_max":0,"o":"m 69 561 l 56 561 l 56 453 l 69 453 z "},"•":{"ha":261,"x_min":0,"x_max":0,"o":"m 131 533 b 83 486 104 533 83 513 b 131 439 83 460 104 439 b 178 486 157 439 178 460 b 131 533 178 513 157 533 z "},"*":{"ha":546,"x_min":0,"x_max":0,"o":"m 282 747 l 476 797 l 472 811 l 279 758 l 279 961 l 265 961 l 265 758 l 74 815 l 69 801 l 263 747 l 147 582 l 158 575 l 272 739 l 386 574 l 397 582 z "},"#":{"ha":578,"x_min":0,"x_max":0,"o":"m 429 689 l 522 689 l 522 701 l 431 701 l 458 974 l 444 974 l 417 701 l 213 701 l 240 974 l 226 974 l 199 701 l 92 701 l 92 689 l 197 689 l 161 339 l 56 339 l 56 326 l 160 326 l 125 0 l 139 0 l 174 326 l 378 326 l 343 0 l 357 0 l 392 326 l 485 326 l 485 339 l 393 339 z m 415 689 l 379 339 l 175 339 l 211 689 z "},"/":{"ha":508,"x_min":0,"x_max":0,"o":"m 453 972 l 439 972 l 56 0 l 69 0 z "},"\\":{"ha":508,"x_min":0,"x_max":0,"o":"m 69 972 l 56 972 l 439 0 l 453 0 z "},"(":{"ha":306,"x_min":0,"x_max":0,"o":"m 229 960 l 250 960 l 250 974 l 229 974 b 56 757 89 974 56 882 l 56 217 b 229 0 56 92 88 0 l 250 0 l 250 14 l 229 14 b 69 217 96 14 69 99 l 69 757 b 229 960 69 874 97 960 z "},")":{"ha":306,"x_min":0,"x_max":0,"o":"m 76 974 l 56 974 l 56 960 l 76 960 b 236 757 208 960 236 874 l 236 217 b 76 14 236 99 210 14 l 56 14 l 56 0 l 76 0 b 250 217 218 0 250 92 l 250 757 b 76 974 250 882 217 974 z "},"{":{"ha":356,"x_min":0,"x_max":0,"o":"m 264 960 l 300 960 l 300 974 l 264 974 b 160 835 176 974 164 908 l 150 642 b 56 496 147 563 143 515 l 56 476 b 150 332 143 458 147 410 l 160 139 b 264 0 164 64 176 0 l 300 0 l 300 14 l 264 14 b 174 139 186 14 178 72 l 164 332 b 74 486 161 407 154 464 b 164 640 154 510 161 567 l 174 835 b 264 960 178 901 186 960 z "},"}":{"ha":356,"x_min":0,"x_max":0,"o":"m 92 974 l 56 974 l 56 960 l 92 960 b 182 835 169 960 178 901 l 192 640 b 282 486 194 567 201 510 b 192 332 201 464 194 407 l 182 139 b 92 14 178 72 169 14 l 56 14 l 56 0 l 92 0 b 196 139 179 0 192 64 l 206 332 b 300 476 208 410 213 458 l 300 496 b 206 642 213 515 208 563 l 196 835 b 92 974 192 908 179 974 z "},"[":{"ha":308,"x_min":0,"x_max":0,"o":"m 253 14 l 69 14 l 69 960 l 253 960 l 253 974 l 56 974 l 56 0 l 253 0 z "},"]":{"ha":308,"x_min":0,"x_max":0,"o":"m 239 14 l 56 14 l 56 0 l 253 0 l 253 974 l 56 974 l 56 960 l 239 960 z "},"-":{"ha":353,"x_min":0,"x_max":0,"o":"m 56 493 l 56 481 l 297 481 l 297 493 z "},"­":{"ha":353,"x_min":0,"x_max":0,"o":"m 56 493 l 56 481 l 297 481 l 297 493 z "},"–":{"ha":515,"x_min":0,"x_max":0,"o":"m 56 493 l 56 481 l 460 481 l 460 493 z "},"—":{"ha":674,"x_min":0,"x_max":0,"o":"m 56 493 l 56 481 l 618 481 l 618 493 z "},"‒":{"ha":674,"x_min":0,"x_max":0,"o":"m 56 493 l 56 481 l 618 481 l 618 493 z "},"_":{"ha":722,"x_min":0,"x_max":0,"o":"m 653 -14 l 56 -14 l 56 -26 l 653 -26 z "},"‚":{"ha":146,"x_min":0,"x_max":0,"o":"m 65 -86 l 90 0 l 90 108 l 76 108 l 76 0 l 78 0 l 56 -86 z "},"„":{"ha":213,"x_min":0,"x_max":0,"o":"m 65 -86 l 90 0 l 90 108 l 76 108 l 76 0 l 78 0 l 56 -86 z m 132 -86 l 157 0 l 157 108 l 143 108 l 143 0 l 144 0 l 122 -86 z "},"“":{"ha":201,"x_min":0,"x_max":0,"o":"m 81 972 l 56 886 l 56 778 l 69 778 l 69 886 l 68 886 l 90 972 z m 136 972 l 111 886 l 111 778 l 125 778 l 125 886 l 124 886 l 146 972 z "},"”":{"ha":201,"x_min":0,"x_max":0,"o":"m 65 778 l 90 864 l 90 972 l 76 972 l 76 864 l 78 864 l 56 778 z m 121 778 l 146 864 l 146 972 l 132 972 l 132 864 l 133 864 l 111 778 z "},"‘":{"ha":146,"x_min":0,"x_max":0,"o":"m 81 972 l 56 886 l 56 778 l 69 778 l 69 886 l 68 886 l 90 972 z "},"’":{"ha":146,"x_min":0,"x_max":0,"o":"m 65 778 l 90 864 l 90 972 l 76 972 l 76 864 l 78 864 l 56 778 z "},"«":{"ha":342,"x_min":0,"x_max":0,"o":"m 56 488 l 149 158 l 163 158 l 69 488 l 163 818 l 149 818 z m 179 488 l 272 158 l 286 158 l 193 488 l 286 818 l 272 818 z "},"»":{"ha":342,"x_min":0,"x_max":0,"o":"m 149 488 l 56 158 l 69 158 l 163 488 l 69 818 l 56 818 z m 272 488 l 179 158 l 193 158 l 286 488 l 193 818 l 179 818 z "},"‹":{"ha":218,"x_min":0,"x_max":0,"o":"m 56 486 l 149 157 l 163 157 l 69 486 l 163 817 l 149 817 z "},"›":{"ha":218,"x_min":0,"x_max":0,"o":"m 149 488 l 56 158 l 69 158 l 163 488 l 69 818 l 56 818 z "},"\"":{"ha":193,"x_min":0,"x_max":0,"o":"m 69 974 l 56 974 l 56 758 l 69 758 z m 138 974 l 124 974 l 124 758 l 138 758 z "},"'":{"ha":125,"x_min":0,"x_max":0,"o":"m 69 974 l 56 974 l 56 758 l 69 758 z "}," ":{"ha":215,"x_min":0,"x_max":0,"o":""}," ":{"ha":215,"x_min":0,"x_max":0,"o":""},"€":{"ha":553,"x_min":0,"x_max":0,"o":"m 107 733 l 107 571 l 42 571 l 42 557 l 107 557 l 107 421 l 42 421 l 42 407 l 107 407 l 107 239 b 303 -7 107 111 157 -7 b 497 239 447 -7 497 111 l 497 290 l 483 290 l 483 239 b 303 7 483 118 440 7 b 121 239 164 7 121 118 l 121 407 l 418 407 l 418 421 l 121 421 l 121 557 l 418 557 l 418 571 l 121 571 l 121 733 b 303 965 121 854 165 965 b 483 733 440 965 483 854 l 483 690 l 497 690 l 497 733 b 303 979 497 863 447 979 b 107 733 157 979 107 863 z "},"¢":{"ha":510,"x_min":0,"x_max":0,"o":"m 261 910 l 261 972 l 247 972 l 247 910 b 56 664 106 906 56 793 l 56 311 b 247 65 56 182 106 69 l 247 0 l 261 0 l 261 65 b 454 308 403 69 454 178 l 454 364 l 440 364 l 440 308 b 254 79 440 183 393 79 b 69 311 115 79 69 189 l 69 664 b 254 896 69 788 115 896 b 440 674 393 896 440 799 l 440 643 l 454 643 l 454 674 b 261 910 454 804 403 907 z "},"¤":{"ha":449,"x_min":0,"x_max":0,"o":"m 333 585 l 393 644 l 383 654 l 324 594 b 224 633 297 619 263 633 b 125 594 186 633 151 619 l 65 654 l 56 644 l 115 585 b 76 486 92 560 76 525 b 115 386 76 447 92 413 l 56 328 l 65 318 l 125 376 b 224 339 151 353 186 339 b 324 376 263 339 297 353 l 383 318 l 393 328 l 333 386 b 372 486 357 413 372 447 b 333 585 372 524 357 560 z m 224 619 b 358 486 299 619 358 560 b 224 353 358 413 299 353 b 90 486 150 353 90 413 b 224 619 90 560 150 619 z "},"$":{"ha":510,"x_min":0,"x_max":0,"o":"m 264 979 l 264 1069 l 250 1069 l 250 979 b 60 739 114 974 60 876 b 442 235 60 472 442 486 b 256 7 442 110 394 7 b 69 235 117 7 69 110 l 69 281 l 56 281 l 56 235 b 250 -7 56 104 107 -4 l 250 -87 l 264 -87 l 264 -7 b 456 235 404 -3 456 106 b 74 739 456 497 74 483 b 257 965 74 861 119 965 b 440 738 394 965 440 860 l 440 721 l 454 721 l 454 738 b 264 979 454 865 404 975 z "},"£":{"ha":529,"x_min":0,"x_max":0,"o":"m 271 979 b 74 729 119 979 74 863 b 192 371 74 564 154 504 l 72 371 l 72 357 l 194 357 b 56 14 224 228 135 107 l 56 0 l 474 0 l 474 14 l 74 14 b 210 357 207 172 228 271 l 431 357 l 431 371 l 206 371 b 88 729 169 503 88 565 b 271 965 88 854 128 965 b 451 725 413 965 451 847 l 451 688 l 465 688 l 465 725 b 271 979 465 856 421 979 z "},"₹":{"ha":515,"x_min":0,"x_max":0,"o":"m 222 958 l 460 958 l 460 972 l 61 972 l 61 958 l 135 958 b 356 710 283 958 356 850 l 61 710 l 61 696 l 356 696 b 135 490 351 581 290 490 l 56 490 l 56 479 l 418 0 l 436 0 l 75 476 l 135 476 b 369 696 300 476 365 572 l 460 696 l 460 710 l 369 710 b 222 958 369 815 328 921 z "},"¥":{"ha":625,"x_min":0,"x_max":0,"o":"m 319 369 l 485 369 l 485 383 l 319 383 l 569 972 l 556 972 l 313 401 l 71 972 l 56 972 l 304 383 l 142 383 l 142 369 l 306 369 l 306 247 l 142 247 l 142 233 l 306 233 l 306 0 l 319 0 l 319 233 l 485 233 l 485 247 l 319 247 z "},"+":{"ha":533,"x_min":0,"x_max":0,"o":"m 274 479 l 478 479 l 478 493 l 274 493 l 274 699 l 260 699 l 260 493 l 56 493 l 56 479 l 260 479 l 260 271 l 274 271 z "},"−":{"ha":533,"x_min":0,"x_max":0,"o":"m 478 493 l 56 493 l 56 479 l 478 479 z "},"×":{"ha":422,"x_min":0,"x_max":0,"o":"m 357 329 l 367 339 l 221 485 l 367 631 l 357 640 l 211 494 l 65 640 l 56 631 l 201 485 l 56 339 l 65 329 l 211 475 z "},"÷":{"ha":353,"x_min":0,"x_max":0,"o":"m 182 650 l 168 650 l 168 542 l 182 542 z m 297 493 l 56 493 l 56 481 l 297 481 z m 182 432 l 168 432 l 168 324 l 182 324 z "},"=":{"ha":353,"x_min":0,"x_max":0,"o":"m 297 592 l 56 592 l 56 579 l 297 579 z m 297 453 l 56 453 l 56 440 l 297 440 z "},">":{"ha":494,"x_min":0,"x_max":0,"o":"m 56 299 l 56 283 l 439 479 l 439 493 l 56 689 l 56 674 l 422 486 z "},"<":{"ha":494,"x_min":0,"x_max":0,"o":"m 439 283 l 439 299 l 72 486 l 439 674 l 439 689 l 56 493 l 56 479 z "},"±":{"ha":533,"x_min":0,"x_max":0,"o":"m 260 285 l 56 285 l 56 271 l 478 271 l 478 285 l 274 285 l 274 479 l 478 479 l 478 493 l 274 493 l 274 699 l 260 699 l 260 493 l 56 493 l 56 479 l 260 479 z "},"≈":{"ha":551,"x_min":0,"x_max":0,"o":"m 169 644 b 56 565 118 643 82 608 l 68 558 b 171 631 90 596 124 629 b 400 544 253 633 318 540 b 496 625 447 547 476 586 l 485 631 b 399 558 467 597 440 561 b 169 644 324 554 257 647 z m 169 425 b 56 346 118 424 82 388 l 68 339 b 171 411 90 376 124 410 b 400 325 253 413 318 321 b 496 406 447 328 476 367 l 485 411 b 399 339 467 378 440 340 b 169 425 324 335 257 426 z "},"~":{"ha":551,"x_min":0,"x_max":0,"o":"m 169 535 b 56 456 117 533 81 499 l 67 449 b 169 521 89 488 122 521 b 399 435 251 524 317 431 b 496 515 446 438 475 476 l 483 522 b 397 449 465 488 439 451 b 169 535 322 446 256 538 z "},"¬":{"ha":515,"x_min":0,"x_max":0,"o":"m 56 481 l 446 481 l 446 296 l 460 296 l 460 493 l 56 493 z "},"^":{"ha":578,"x_min":0,"x_max":0,"o":"m 72 543 l 289 957 l 506 543 l 522 543 l 297 972 l 281 972 l 56 543 z "},"∞":{"ha":760,"x_min":0,"x_max":0,"o":"m 544 667 l 524 667 b 381 575 456 667 399 642 b 236 667 361 642 304 667 l 215 667 b 56 521 122 667 56 618 b 215 375 56 422 122 375 l 236 375 b 381 467 304 375 361 399 b 524 375 399 399 456 375 l 544 375 b 704 521 638 375 704 422 b 544 667 704 618 638 667 z m 215 653 l 236 653 b 374 521 325 653 374 610 b 236 389 374 432 325 389 l 215 389 b 69 521 129 389 69 431 b 215 653 69 611 129 653 z m 524 653 l 544 653 b 690 521 631 653 690 611 b 544 389 690 431 631 389 l 524 389 b 386 521 435 389 386 432 b 524 653 386 610 435 653 z "},"µ":{"ha":557,"x_min":0,"x_max":0,"o":"m 460 157 l 458 0 l 472 0 l 472 694 l 458 694 l 458 246 b 275 13 458 119 410 13 b 93 246 139 13 93 119 l 93 694 l 79 694 l 79 -126 l 93 -126 l 92 153 b 275 0 111 64 171 0 b 460 157 378 0 438 61 z "},"%":{"ha":824,"x_min":0,"x_max":0,"o":"m 178 974 b 56 814 85 974 56 894 l 56 532 b 178 374 56 451 85 374 b 300 532 271 374 300 451 l 300 814 b 178 974 300 894 271 974 z m 610 974 l 594 974 l 211 0 l 226 0 z m 178 960 b 286 814 263 960 286 886 l 286 532 b 178 388 286 460 263 388 b 69 532 92 388 69 460 l 69 814 b 178 960 69 886 92 960 z m 646 594 b 524 436 553 594 524 517 l 524 160 b 646 0 524 79 553 0 b 768 160 740 0 768 79 l 768 436 b 646 594 768 517 740 594 z m 646 581 b 754 436 732 581 754 508 l 754 160 b 646 14 754 88 732 14 b 538 160 561 14 538 88 l 538 436 b 646 581 538 508 561 581 z "},"‰":{"ha":1160,"x_min":0,"x_max":0,"o":"m 178 974 b 56 814 85 974 56 894 l 56 532 b 178 374 56 451 85 374 b 300 532 271 374 300 451 l 300 814 b 178 974 300 894 271 974 z m 610 974 l 594 974 l 211 0 l 226 0 z m 178 960 b 286 814 263 960 286 886 l 286 532 b 178 388 286 460 263 388 b 69 532 92 388 69 460 l 69 814 b 178 960 69 886 92 960 z m 646 594 b 524 436 553 594 524 517 l 524 160 b 646 0 524 79 553 0 b 768 160 740 0 768 79 l 768 436 b 646 594 768 517 740 594 z m 982 594 b 860 436 889 594 860 517 l 860 160 b 982 0 860 79 889 0 b 1104 160 1076 0 1104 79 l 1104 436 b 982 594 1104 517 1076 594 z m 646 581 b 754 436 732 581 754 508 l 754 160 b 646 14 754 88 732 14 b 538 160 561 14 538 88 l 538 436 b 646 581 538 508 561 581 z m 982 581 b 1090 436 1068 581 1090 508 l 1090 160 b 982 14 1090 88 1068 14 b 874 160 897 14 874 88 l 874 436 b 982 581 874 508 897 581 z "},"@":{"ha":956,"x_min":0,"x_max":0,"o":"m 539 1006 b 56 393 189 1006 56 700 b 479 -54 56 110 188 -54 b 722 15 567 -54 650 -35 l 722 33 b 479 -40 657 -19 564 -40 b 69 393 196 -40 69 117 b 539 992 69 692 197 992 b 886 621 779 992 886 853 b 681 225 888 494 849 226 b 613 336 621 225 608 288 l 654 729 l 640 729 l 631 633 b 497 738 614 701 568 738 b 318 540 382 738 329 644 l 304 404 b 440 193 294 304 319 193 b 599 311 519 193 571 240 b 681 211 600 260 624 211 b 900 622 860 213 900 486 b 539 1006 900 860 786 1006 z m 497 724 b 621 540 607 724 631 632 l 606 404 b 440 207 596 307 551 207 b 318 401 328 207 308 311 l 332 539 b 497 724 343 635 389 724 z "},"&":{"ha":551,"x_min":0,"x_max":0,"o":"m 290 958 l 408 958 l 408 972 l 290 972 b 56 731 132 972 56 885 l 56 703 b 194 507 56 617 99 529 b 56 307 101 481 56 396 l 56 219 b 249 -7 56 92 111 -7 b 424 101 325 -7 394 29 b 449 0 424 65 429 33 l 465 0 b 436 133 436 42 436 85 l 436 501 l 496 501 l 496 514 l 436 514 l 436 622 l 422 622 l 422 514 l 225 514 b 69 703 125 521 69 610 l 69 731 b 290 958 69 878 140 958 z m 235 501 l 422 501 l 422 172 b 249 7 422 71 347 7 b 69 219 119 7 69 100 l 69 307 b 235 501 69 408 129 492 z "},"¶":{"ha":550,"x_min":0,"x_max":0,"o":"m 228 958 l 457 958 l 457 -83 l 471 -83 l 471 972 l 214 972 b 40 747 67 971 40 879 l 40 646 b 214 419 40 501 79 428 l 214 -83 l 228 -83 z "},"§":{"ha":511,"x_min":0,"x_max":0,"o":"m 261 979 b 58 821 161 979 61 932 b 236 636 56 721 144 678 b 60 450 147 614 60 550 b 443 64 58 219 449 269 b 258 -75 439 -29 340 -75 b 69 83 161 -75 69 -24 l 69 115 l 56 115 l 56 83 b 258 -89 56 -32 153 -89 b 456 64 349 -89 453 -37 b 299 243 460 161 383 206 b 454 435 382 276 454 336 b 72 821 454 664 67 625 b 261 965 75 924 169 965 b 436 807 354 964 436 906 l 436 794 l 450 794 l 450 807 b 261 979 450 914 361 978 z m 258 626 b 440 435 350 585 440 539 b 281 251 440 338 364 281 b 74 450 190 290 72 333 b 258 626 74 550 169 611 z "},"©":{"ha":1047,"x_min":0,"x_max":0,"o":"m 524 967 b 56 486 249 967 56 757 b 524 6 56 215 249 6 b 992 486 797 6 992 215 b 524 967 992 757 797 967 z m 524 953 b 978 486 790 953 978 749 b 524 18 978 224 790 18 b 69 486 257 18 69 224 b 524 953 69 749 257 953 z m 518 790 b 378 619 415 790 378 711 l 378 353 b 518 181 378 261 415 181 b 657 353 619 181 657 261 l 657 388 l 643 388 l 643 353 b 518 194 643 269 613 194 b 392 353 422 194 392 269 l 392 619 b 518 776 392 703 422 776 b 643 619 613 776 643 703 l 643 596 l 657 596 l 657 619 b 518 790 657 711 619 790 z "},"®":{"ha":1047,"x_min":0,"x_max":0,"o":"m 524 967 b 56 486 249 967 56 757 b 524 6 56 215 249 6 b 992 486 797 6 992 215 b 524 967 992 757 797 967 z m 524 953 b 978 486 790 953 978 749 b 524 18 978 224 790 18 b 69 486 257 18 69 224 b 524 953 69 749 257 953 z m 528 783 l 396 783 l 396 189 l 410 189 l 410 461 l 493 461 b 654 333 586 461 654 439 l 654 269 b 671 189 654 243 657 213 l 688 189 b 668 269 669 208 668 244 l 668 333 b 569 467 668 404 639 450 b 667 610 643 485 667 538 l 667 629 b 528 783 667 722 628 783 z m 510 475 l 410 475 l 410 769 l 528 769 b 653 629 621 769 653 715 l 653 610 b 510 475 653 511 606 475 z "},"℗":{"ha":1047,"x_min":0,"x_max":0,"o":"m 524 968 b 56 488 249 968 56 758 b 524 7 56 217 249 7 b 992 488 799 7 992 217 b 524 968 992 758 799 968 z m 524 954 b 978 488 790 954 978 750 b 524 19 978 225 790 19 b 69 488 257 19 69 225 b 524 954 69 750 257 954 z m 551 772 l 419 772 l 419 178 l 433 178 l 433 418 l 533 418 b 689 576 642 418 689 469 l 689 610 b 551 772 689 703 656 772 z m 533 432 l 433 432 l 433 758 l 551 758 b 675 610 647 758 675 696 l 675 576 b 533 432 675 476 633 432 z "},"™":{"ha":800,"x_min":0,"x_max":0,"o":"m 161 478 l 175 478 l 175 958 l 311 958 l 311 972 l 24 972 l 24 958 l 161 958 z m 571 488 l 731 947 l 731 478 l 744 478 l 744 972 l 725 972 l 563 507 l 401 972 l 382 972 l 382 478 l 396 478 l 396 947 l 554 488 z "},"°":{"ha":278,"x_min":0,"x_max":0,"o":"m 139 983 b 56 903 93 983 56 949 b 139 821 56 856 93 821 b 222 903 185 821 222 856 b 139 983 222 949 185 983 z m 139 969 b 208 903 176 969 208 942 b 139 835 208 863 176 835 b 69 903 100 835 69 863 b 139 969 69 942 100 969 z "},"|":{"ha":153,"x_min":0,"x_max":0,"o":"m 83 974 l 69 974 l 69 0 l 83 0 z "},"¦":{"ha":154,"x_min":0,"x_max":0,"o":"m 69 972 l 69 568 l 85 568 l 85 972 z m 69 404 l 69 0 l 85 0 l 85 404 z "},"†":{"ha":543,"x_min":0,"x_max":0,"o":"m 279 678 l 279 972 l 264 972 l 264 678 l 56 678 l 56 663 l 264 663 l 264 -90 l 279 -90 l 279 663 l 488 663 l 488 678 z "},"‡":{"ha":543,"x_min":0,"x_max":0,"o":"m 279 678 l 279 972 l 264 972 l 264 678 l 56 678 l 56 663 l 264 663 l 264 222 l 56 222 l 56 207 l 264 207 l 264 -90 l 279 -90 l 279 207 l 488 207 l 488 222 l 279 222 l 279 663 l 488 663 l 488 678 z "},"ʼ":{"ha":146,"x_min":0,"x_max":0,"o":"m 65 778 l 90 864 l 90 972 l 76 972 l 76 864 l 78 864 l 56 778 z "},"":{"ha":0,"x_min":0,"x_max":0,"o":"m 65 -242 l 90 -156 l 90 -47 l 76 -47 l 76 -156 l 78 -156 l 56 -242 z "},"´":{"ha":232,"x_min":0,"x_max":0,"o":"m 176 1178 l 157 1178 l 56 1058 l 74 1058 z "},"˘":{"ha":357,"x_min":0,"x_max":0,"o":"m 301 1119 l 288 1119 b 178 1032 285 1061 232 1032 b 69 1119 124 1032 71 1061 l 56 1119 b 178 1018 57 1053 117 1018 b 301 1119 240 1018 299 1054 z "},"ˇ":{"ha":347,"x_min":0,"x_max":0,"o":"m 75 1178 l 56 1178 l 168 1069 l 178 1069 l 292 1178 l 271 1178 l 174 1083 z "},"¸":{"ha":342,"x_min":0,"x_max":0,"o":"m 182 -54 l 182 0 l 168 0 l 168 -67 l 175 -67 b 272 -129 219 -67 272 -74 b 172 -199 272 -181 214 -199 b 69 -128 129 -197 69 -179 l 69 -124 l 56 -124 l 56 -128 b 172 -211 56 -187 121 -211 b 286 -129 222 -212 286 -189 b 182 -54 286 -68 233 -56 z "},"ˆ":{"ha":347,"x_min":0,"x_max":0,"o":"m 75 1069 l 174 1164 l 271 1069 l 292 1069 l 178 1178 l 168 1178 l 56 1069 z "},"¨":{"ha":217,"x_min":0,"x_max":0,"o":"m 69 1150 l 56 1150 l 56 1042 l 69 1042 z m 161 1150 l 147 1150 l 147 1042 l 161 1042 z "},"˙":{"ha":125,"x_min":0,"x_max":0,"o":"m 69 1157 l 56 1157 l 56 1049 l 69 1049 z "},"`":{"ha":232,"x_min":0,"x_max":0,"o":"m 75 1178 l 56 1178 l 158 1058 l 176 1058 z "},"˝":{"ha":314,"x_min":0,"x_max":0,"o":"m 176 1178 l 157 1178 l 56 1058 l 74 1058 z m 258 1178 l 239 1178 l 138 1058 l 156 1058 z "},"¯":{"ha":353,"x_min":0,"x_max":0,"o":"m 297 1054 l 56 1054 l 56 1042 l 297 1042 z "},"˛":{"ha":250,"x_min":0,"x_max":0,"o":"m 139 0 l 119 0 b 56 -128 89 -31 53 -83 b 126 -189 58 -171 90 -187 b 194 -169 150 -189 175 -182 l 194 -153 b 128 -175 178 -167 151 -175 b 69 -128 97 -175 72 -161 b 139 0 67 -85 106 -26 z "},"˚":{"ha":278,"x_min":0,"x_max":0,"o":"m 139 1211 b 56 1131 93 1211 56 1176 b 139 1049 56 1083 93 1049 b 222 1131 185 1049 222 1083 b 139 1211 222 1176 185 1211 z m 139 1197 b 208 1131 176 1197 208 1169 b 139 1063 208 1090 176 1063 b 69 1131 100 1063 69 1090 b 139 1197 69 1169 100 1197 z "},"˜":{"ha":372,"x_min":0,"x_max":0,"o":"m 317 1104 l 304 1111 b 257 1068 294 1093 279 1069 b 125 1121 215 1065 175 1122 b 56 1071 93 1119 71 1097 l 68 1064 b 125 1107 81 1086 99 1107 b 257 1054 171 1108 210 1051 b 317 1104 286 1056 304 1081 z "}}}
